<?xml version="1.0" encoding="utf-8"?>
<!-- Generator: Adobe Illustrator 22.0.1, SVG Export Plug-In . SVG Version: 6.00 Build 0)  -->
<svg version="1.1" id="Layer_1" xmlns="http://www.w3.org/2000/svg" xmlns:xlink="http://www.w3.org/1999/xlink" x="0px" y="0px"
	 viewBox="0 0 256 256" style="enable-background:new 0 0 256 256;" xml:space="preserve">
<style type="text/css">
	.st0{fill:#3A312A;}
	.st1{fill:#FCE8CB;}
	.st2{fill:#8AC5DC;}
	.st3{fill:#ED6E7A;}
	.st4{fill:#D7E057;}
	.st5{fill:#87796F;}
	.st6{fill:#695B51;}
	.st7{fill:#EF6D7A;}
	.st8{fill:#D6DF58;}
	.st9{fill:#6A5C52;}
	.st10{fill:#F16C7A;}
	.st11{fill:#8AC6DD;}
	.st12{fill:#D34E5C;}
	.st13{fill:#B9C239;}
	.st14{fill:#6CA8BF;}
	.st15{fill:#89C4DB;}
	.st16{fill:#D5DE58;}
	.st17{fill:#DECAAD;}
	.st18{fill:#D5DC57;}
	.st19{fill:#8AC3DA;}
	.st20{fill:#D4DB56;}
	.st21{fill:#EA6D7A;}
	.st22{fill:#FAE6CA;}
	.st23{fill:#EB6E7A;}
	.st24{fill:#F8E4C8;}
	.st25{fill:#E96C7A;}
	.st26{fill:#8AC2D9;}
	.st27{fill:#E86C7A;}
	.st28{fill:#8AC1D8;}
	.st29{fill:#D4DA55;}
</style>
<g>
	<g>
		<g>
			<path class="st0" d="M58.22,37.625c-0.828,0-1.5,0.671-1.5,1.5v177.75c0,0.829,0.672,1.5,1.5,1.5c0.828,0,1.5-0.671,1.5-1.5
				V39.125C59.72,38.296,59.048,37.625,58.22,37.625z"/>
		</g>
	</g>
	<g>
		<g>
			<path class="st0" d="M210.163,56c-0.828,0-1.5,0.671-1.5,1.5v105c0,0.829,0.672,1.5,1.5,1.5s1.5-0.671,1.5-1.5v-105
				C211.663,56.671,210.991,56,210.163,56z"/>
		</g>
	</g>
	<g>
		<g>
			<path class="st0" d="M108.972,25.5c-0.828,0-1.5,0.671-1.5,1.5v130c0,0.829,0.672,1.5,1.5,1.5s1.5-0.671,1.5-1.5V27
				C110.472,26.171,109.8,25.5,108.972,25.5z"/>
		</g>
	</g>
	<g>
		<g>
			<path class="st0" d="M159.5,61.5c-0.828,0-1.5,0.671-1.5,1.5v152c0,0.829,0.672,1.5,1.5,1.5s1.5-0.671,1.5-1.5V63
				C161,62.171,160.328,61.5,159.5,61.5z"/>
		</g>
	</g>
	<g>
		<g>
			<path class="st0" d="M239.375,226.625h-209.5v-210.5c0-0.829-0.672-1.5-1.5-1.5c-0.828,0-1.5,0.671-1.5,1.5v212
				c0,0.829,0.672,1.5,1.5,1.5h211c0.828,0,1.5-0.671,1.5-1.5S240.203,226.625,239.375,226.625z"/>
		</g>
	</g>
	<g>
		<g>
			<path class="st0" d="M28.375,226.625c-0.828,0-1.5,0.671-1.5,1.5v11.75c0,0.829,0.672,1.5,1.5,1.5c0.828,0,1.5-0.671,1.5-1.5
				v-11.75C29.875,227.296,29.203,226.625,28.375,226.625z"/>
		</g>
	</g>
	<g>
		<g>
			<path class="st0" d="M58.22,226.625c-0.828,0-1.5,0.671-1.5,1.5v11.75c0,0.829,0.672,1.5,1.5,1.5c0.828,0,1.5-0.671,1.5-1.5
				v-11.75C59.72,227.296,59.048,226.625,58.22,226.625z"/>
		</g>
	</g>
	<g>
		<g>
			<path class="st0" d="M108.972,226.625c-0.828,0-1.5,0.671-1.5,1.5v11.75c0,0.829,0.672,1.5,1.5,1.5s1.5-0.671,1.5-1.5v-11.75
				C110.472,227.296,109.8,226.625,108.972,226.625z"/>
		</g>
	</g>
	<g>
		<g>
			<path class="st0" d="M159.233,226.625c-0.828,0-1.5,0.671-1.5,1.5v11.75c0,0.829,0.672,1.5,1.5,1.5s1.5-0.671,1.5-1.5v-11.75
				C160.733,227.296,160.062,226.625,159.233,226.625z"/>
		</g>
	</g>
	<g>
		<g>
			<path class="st0" d="M210.163,226.625c-0.828,0-1.5,0.671-1.5,1.5v11.75c0,0.829,0.672,1.5,1.5,1.5s1.5-0.671,1.5-1.5v-11.75
				C211.663,227.296,210.991,226.625,210.163,226.625z"/>
		</g>
	</g>
	<g>
		<g>
			<path class="st0" d="M28.375,226.625h-11.75c-0.828,0-1.5,0.671-1.5,1.5s0.672,1.5,1.5,1.5h11.75c0.828,0,1.5-0.671,1.5-1.5
				S29.203,226.625,28.375,226.625z"/>
		</g>
	</g>
	<g>
		<g>
			<path class="st0" d="M28.375,193.155h-11.75c-0.828,0-1.5,0.671-1.5,1.5s0.672,1.5,1.5,1.5h11.75c0.828,0,1.5-0.671,1.5-1.5
				S29.203,193.155,28.375,193.155z"/>
		</g>
	</g>
	<g>
		<g>
			<path class="st0" d="M28.375,159.695h-11.75c-0.828,0-1.5,0.671-1.5,1.5c0,0.829,0.672,1.5,1.5,1.5h11.75
				c0.828,0,1.5-0.671,1.5-1.5C29.875,160.366,29.203,159.695,28.375,159.695z"/>
		</g>
	</g>
	<g>
		<g>
			<path class="st0" d="M28.375,126.225h-11.75c-0.828,0-1.5,0.671-1.5,1.5s0.672,1.5,1.5,1.5h11.75c0.828,0,1.5-0.671,1.5-1.5
				S29.203,126.225,28.375,126.225z"/>
		</g>
	</g>
	<g>
		<g>
			<path class="st0" d="M28.375,92.765h-11.75c-0.828,0-1.5,0.671-1.5,1.5c0,0.829,0.672,1.5,1.5,1.5h11.75
				c0.828,0,1.5-0.671,1.5-1.5C29.875,93.436,29.203,92.765,28.375,92.765z"/>
		</g>
	</g>
	<g>
		<g>
			<path class="st0" d="M28.375,59.295h-11.75c-0.828,0-1.5,0.671-1.5,1.5c0,0.829,0.672,1.5,1.5,1.5h11.75
				c0.828,0,1.5-0.671,1.5-1.5C29.875,59.966,29.203,59.295,28.375,59.295z"/>
		</g>
	</g>
	<g>
		<g>
			<path class="st0" d="M28.375,25.835h-11.75c-0.828,0-1.5,0.671-1.5,1.5c0,0.829,0.672,1.5,1.5,1.5h11.75
				c0.828,0,1.5-0.671,1.5-1.5C29.875,26.506,29.203,25.835,28.375,25.835z"/>
		</g>
	</g>
	<g>
		<g>
			<polygon class="st7" points="39.806,63 39.806,118.562 39.806,132.771 39.806,193 76.283,193 76.283,63 			"/>
		</g>
	</g>
	<g>
		<g>
			<path class="st0" d="M76.283,61.5H39.807c-0.828,0-1.5,0.671-1.5,1.5v55.563c0,0.829,0.672,1.5,1.5,1.5
				c0.828,0,1.5-0.671,1.5-1.5V64.5h33.477v127H41.307v-58.729c0-0.829-0.672-1.5-1.5-1.5c-0.828,0-1.5,0.671-1.5,1.5V193
				c0,0.829,0.672,1.5,1.5,1.5h36.477c0.828,0,1.5-0.671,1.5-1.5V63C77.783,62.171,77.111,61.5,76.283,61.5z"/>
		</g>
	</g>
	<g>
		<g>
			<rect x="90.443" y="51" class="st8" width="36.477" height="82"/>
		</g>
	</g>
	<g>
		<g>
			<path class="st0" d="M126.92,49.5H90.443c-0.828,0-1.5,0.671-1.5,1.5v82c0,0.829,0.672,1.5,1.5,1.5h36.477
				c0.828,0,1.5-0.671,1.5-1.5V51C128.42,50.171,127.748,49.5,126.92,49.5z M125.42,131.5H91.943v-79h33.477V131.5z"/>
		</g>
	</g>
	<g>
		<g>
			<rect x="191.716" y="81" class="st5" width="36.477" height="58"/>
		</g>
	</g>
	<g>
		<g>
			<path class="st0" d="M228.193,79.5h-36.477c-0.828,0-1.5,0.671-1.5,1.5v58c0,0.829,0.672,1.5,1.5,1.5h36.477
				c0.828,0,1.5-0.671,1.5-1.5V81C229.693,80.171,229.021,79.5,228.193,79.5z M226.693,137.5h-33.477v-55h33.477V137.5z"/>
		</g>
	</g>
	<g>
		<g>
			<polygon class="st2" points="141.08,86 141.08,192 177.557,192 177.557,150.409 177.557,136.258 177.557,86 			"/>
		</g>
	</g>
	<g>
		<g>
			<path class="st0" d="M177.557,137.758c0.828,0,1.5-0.671,1.5-1.5V86c0-0.829-0.672-1.5-1.5-1.5H141.08
				c-0.828,0-1.5,0.671-1.5,1.5v106c0,0.829,0.672,1.5,1.5,1.5h36.477c0.828,0,1.5-0.671,1.5-1.5v-41.591c0-0.829-0.672-1.5-1.5-1.5
				s-1.5,0.671-1.5,1.5V190.5H142.58v-103h33.477v48.758C176.057,137.086,176.729,137.758,177.557,137.758z"/>
		</g>
	</g>
	<g>
		<g>
			<rect x="211.69" y="82.5" class="st6" width="15" height="55"/>
		</g>
	</g>
</g>
</svg>
