<?xml version="1.0" encoding="UTF-8" standalone="no" ?>
<!DOCTYPE svg PUBLIC "-//W3C//DTD SVG 1.1//EN" "http://www.w3.org/Graphics/SVG/1.1/DTD/svg11.dtd">
<svg xmlns="http://www.w3.org/2000/svg" xmlns:xlink="http://www.w3.org/1999/xlink" version="1.1" width="1080" height="1080" viewBox="0 0 1080 1080" xml:space="preserve">
<desc>Created with Fabric.js 5.2.4</desc>
<defs>
</defs>
<g transform="matrix(1 0 0 1 540 540)" id="7222c900-b728-417f-8bd1-e4cbe61b37cc"  >
<rect style="stroke: none; stroke-width: 1; stroke-dasharray: none; stroke-linecap: butt; stroke-dashoffset: 0; stroke-linejoin: miter; stroke-miterlimit: 4; fill: rgb(255,255,255); fill-rule: nonzero; opacity: 1; visibility: hidden;" vector-effect="non-scaling-stroke"  x="-540" y="-540" rx="0" ry="0" width="1080" height="1080" />
</g>
<g transform="matrix(1 0 0 1 540 540)" id="2147a14e-1417-46f7-bfc1-8ac44318414b"  >
</g>
<g transform="matrix(1 0 0 1 677.24 536.44)"  >
<path style="stroke: none; stroke-width: 1; stroke-dasharray: none; stroke-linecap: butt; stroke-dashoffset: 0; stroke-linejoin: miter; stroke-miterlimit: 4; fill: rgb(212,188,119); fill-rule: nonzero; opacity: 1;" vector-effect="non-scaling-stroke"  transform=" translate(-1024.24, -587.94)" d="M 1019.003479 541.85553 C 1020.390442 541.867737 1021.777344 541.879944 1023.57666 541.828491 C 1051.691895 541.460022 1072.202881 565.733215 1070.052002 592.544983 C 1066.967163 611.830872 1056.136963 624.745056 1038.685303 631.513733 C 1023.510681 637.399292 1003.412781 632.887451 991.623413 620.112915 C 980.01593 607.535461 975.722717 593.23407 979.759155 576.699951 C 984.454468 557.466858 997.372192 546.614868 1016.969604 542.184937 C 1018.120422 542.029846 1018.561951 541.942688 1019.003479 541.85553 M 1051.853271 618.38623 C 1053.297119 616.783691 1054.791138 615.223267 1056.177002 613.57196 C 1067.062256 600.601257 1068.312378 580.074402 1059.341431 566.001526 C 1048.578857 549.118103 1029.96936 543.442871 1013.105286 547.971375 C 990.798096 553.961487 978.130005 577.07666 984.674561 599.240845 C 989.512695 615.625977 1001.247498 625.499878 1017.423584 628.636963 C 1029.709839 631.019653 1041.499756 627.282104 1051.853271 618.38623 z" stroke-linecap="round" />
</g>
<g transform="matrix(1 0 0 1 852.01 532.28)"  >
<path style="stroke: none; stroke-width: 1; stroke-dasharray: none; stroke-linecap: butt; stroke-dashoffset: 0; stroke-linejoin: miter; stroke-miterlimit: 4; fill: rgb(233,215,140); fill-rule: nonzero; opacity: 1;" vector-effect="non-scaling-stroke"  transform=" translate(-1199.01, -583.79)" d="M 1231.363403 563.405029 C 1221.237061 563.738037 1211.433838 563.738037 1201.045898 563.738037 C 1200.926636 565.99762 1200.75708 567.740479 1200.754639 569.483521 C 1200.730591 586.64325 1200.706543 603.803101 1200.755493 620.962708 C 1200.764404 624.06366 1200.440796 626.437927 1196.115234 624.914734 C 1196.115234 603.18573 1196.115234 581.447754 1196.115234 559.08429 C 1206.317627 559.08429 1216.376343 559.08429 1226.688477 559.08429 C 1226.688477 554.871338 1226.688477 551.27655 1226.688477 547.29541 C 1225.412354 547.140747 1224.155762 546.858948 1222.898315 546.855652 C 1207.404541 546.815125 1191.910889 546.815247 1176.417114 546.804932 C 1176.083862 546.804749 1175.701538 546.698669 1175.426025 546.825012 C 1174.246216 547.36615 1173.0979 547.975952 1171.93811 548.560669 C 1173.092529 549.169495 1174.242432 550.297546 1175.402222 550.307983 C 1188.5625 550.425842 1201.724121 550.372559 1214.885498 550.365662 C 1217.352539 550.36438 1219.819458 550.365479 1222.557739 550.365479 C 1222.557739 552.28717 1222.557739 553.696777 1222.557739 555.483704 C 1220.94751 555.591003 1219.496582 555.770691 1218.045532 555.771606 C 1202.551758 555.78125 1187.056763 555.655396 1171.565063 555.828369 C 1167.7677 555.870728 1165.960449 554.986816 1166.409668 550.862305 C 1166.710693 548.097717 1166.467041 545.273804 1166.467041 542.184509 C 1188.412109 542.184509 1209.821167 542.184509 1231.686523 542.184509 C 1231.686523 549.218994 1231.686523 556.145508 1231.363403 563.405029 z" stroke-linecap="round" />
</g>
<g transform="matrix(1 0 0 1 770.93 536.86)"  >
<path style="stroke: none; stroke-width: 1; stroke-dasharray: none; stroke-linecap: butt; stroke-dashoffset: 0; stroke-linejoin: miter; stroke-miterlimit: 4; fill: rgb(233,215,140); fill-rule: nonzero; opacity: 1;" vector-effect="non-scaling-stroke"  transform=" translate(-1117.93, -588.36)" d="M 1087.418091 585.90033 C 1093.209351 572.664734 1099.090332 559.467102 1104.726685 546.165833 C 1106.077637 542.9776 1108.289307 542.875305 1111.066895 542.934326 C 1113.654297 542.989197 1115.751709 543.006714 1117.090088 546.013062 C 1129.598999 574.110474 1142.264526 602.138184 1154.869751 630.192749 C 1155.266113 631.075012 1155.501221 632.029846 1156.091797 633.783508 C 1148.235229 633.783508 1140.855469 633.875305 1133.484741 633.659119 C 1132.630981 633.634033 1131.59436 632.017578 1131.044067 630.934875 C 1129.388672 627.677673 1127.44458 624.449707 1126.514771 620.969421 C 1125.208008 616.077698 1122.606934 614.448975 1117.624146 614.751282 C 1111.156128 615.143799 1104.605103 615.157104 1098.155884 614.587341 C 1091.97522 614.04126 1087.916748 615.599609 1086.629272 622.132935 C 1085.90332 625.817017 1083.497437 626.342285 1079.765747 624.949646 C 1081.734253 620.428833 1083.482056 615.981384 1085.658203 611.754517 C 1086.138428 610.821777 1088.131714 610.241028 1089.436401 610.226685 C 1100.762207 610.101685 1112.091919 610.034302 1123.414062 610.264587 C 1124.922119 610.295227 1126.96106 611.753052 1127.771484 613.128723 C 1129.787231 616.550293 1131.623535 620.184265 1132.809692 623.959778 C 1134.168579 628.284302 1136.684204 629.641663 1140.938721 629.065247 C 1143.169189 628.763123 1145.474365 629.011963 1148.657227 629.011963 C 1145.893066 622.56665 1143.536133 616.960266 1141.092163 611.39209 C 1132.342529 591.458191 1123.563599 571.537109 1114.793579 551.612122 C 1114.525391 551.002563 1114.348633 550.304138 1113.929688 549.81958 C 1113.018311 548.765198 1112.027466 547.121704 1110.974976 547.047058 C 1110.070435 546.982971 1108.653442 548.587646 1108.118896 549.754761 C 1104.248657 558.205505 1100.555786 566.737427 1096.783447 575.233276 C 1095.09668 579.032227 1093.356812 582.807556 1091.014526 586.784302 C 1089.398071 586.61676 1088.408081 586.258545 1087.418091 585.90033 z" stroke-linecap="round" />
</g>
<g transform="matrix(1 0 0 1 768.15 538.14)"  >
<path style="stroke: none; stroke-width: 1; stroke-dasharray: none; stroke-linecap: butt; stroke-dashoffset: 0; stroke-linejoin: miter; stroke-miterlimit: 4; fill: rgb(233,215,140); fill-rule: nonzero; opacity: 1;" vector-effect="non-scaling-stroke"  transform=" translate(-1115.15, -589.64)" d="M 1097.074585 606.81543 C 1093.82959 606.815125 1091.072021 606.815125 1087.316895 606.815125 C 1095.244873 588.935852 1102.757568 571.993164 1110.927368 553.568665 C 1121.913696 578.043945 1132.384888 601.371887 1142.97522 624.965149 C 1139.686279 626.398376 1137.878906 625.799927 1136.512085 622.647278 C 1128.777588 604.807373 1120.899414 587.029785 1113.060913 569.234985 C 1112.597778 568.183594 1112.05481 567.167358 1110.905396 564.821045 C 1105.502563 577.68573 1100.520752 589.547913 1095.255859 602.083923 C 1103.065552 602.083923 1109.907715 602.083923 1117.669922 602.083923 C 1115.425171 596.986267 1113.461914 592.527893 1111.484619 588.037842 C 1106.792725 590.529297 1110.155762 600.042908 1101.183594 598.599487 C 1104.331543 590.793884 1107.362915 583.2771 1110.870239 574.580505 C 1115.865601 585.601624 1120.443848 595.702454 1125.480957 606.815796 C 1115.64563 606.815796 1106.603882 606.815796 1097.074585 606.81543 z" stroke-linecap="round" />
</g>
<g transform="matrix(1 0 0 1 841.38 544.99)"  >
<path style="stroke: none; stroke-width: 1; stroke-dasharray: none; stroke-linecap: butt; stroke-dashoffset: 0; stroke-linejoin: miter; stroke-miterlimit: 4; fill: rgb(233,215,140); fill-rule: nonzero; opacity: 1;" vector-effect="non-scaling-stroke"  transform=" translate(-1188.38, -596.48)" d="M 1167.016602 562.85437 C 1167.830688 561.298157 1168.750977 559.246765 1169.750366 559.207458 C 1176.875 558.92749 1184.015747 559.058228 1191.67395 559.058228 C 1191.67395 582.307373 1191.67395 605.198425 1191.67395 628.481689 C 1196.220947 628.481689 1200.24707 628.481689 1204.743164 628.481689 C 1204.743164 608.395386 1204.743164 588.489563 1204.743164 568.505981 C 1208.091919 567.436646 1209.755737 567.767883 1209.737427 571.516663 C 1209.642456 590.995605 1209.665161 610.475281 1209.707886 629.954529 C 1209.713501 632.514099 1209.161865 634.018921 1206.122803 633.939087 C 1199.98877 633.777954 1193.847656 633.891174 1187.012939 633.891174 C 1187.012939 610.539246 1187.012939 587.531189 1187.012939 564.392334 C 1179.936157 563.999634 1173.547852 563.645142 1167.016602 562.85437 z" stroke-linecap="round" />
</g>
<g transform="matrix(1 0 0 1 746.19 558.58)"  >
<path style="stroke: none; stroke-width: 1; stroke-dasharray: none; stroke-linecap: butt; stroke-dashoffset: 0; stroke-linejoin: miter; stroke-miterlimit: 4; fill: rgb(212,188,119); fill-rule: nonzero; opacity: 1;" vector-effect="non-scaling-stroke"  transform=" translate(-1093.19, -610.08)" d="M 1087.195679 586.129028 C 1088.408081 586.258545 1089.398071 586.61676 1090.776733 587.03418 C 1087.800049 595.18219 1084.468506 603.285339 1081.057617 611.354919 C 1078.692749 616.94989 1076.218628 622.498596 1073.413696 628.939514 C 1078.522827 628.939514 1082.821167 629.336975 1086.96814 628.718811 C 1088.373901 628.509277 1090.06543 625.88446 1090.466553 624.102417 C 1091.560791 619.241516 1094.239746 617.812134 1099.02002 618.14978 C 1104.808228 618.558655 1110.649414 618.324097 1116.464478 618.207642 C 1119.616699 618.144592 1121.099487 619.395691 1120.828979 623.098206 C 1115.827393 623.098206 1110.87207 623.098206 1105.45166 623.158569 C 1103.65918 623.171265 1102.306396 623.270935 1101.009277 623.047852 C 1097.296387 622.409241 1094.973877 623.73468 1094.131836 627.493835 C 1092.872192 633.117798 1089.191895 634.39563 1083.820068 633.939514 C 1078.091675 633.453125 1072.290039 633.830078 1065.521606 633.830078 C 1070.901733 621.904358 1075.906494 610.810669 1080.973633 599.363037 C 1083.015137 594.791931 1084.994141 590.574829 1087.195679 586.129028 z" stroke-linecap="round" />
</g>
<g transform="matrix(1 0 0 1 337.64 517.78)"  >
<path style="stroke: none; stroke-width: 1; stroke-dasharray: none; stroke-linecap: butt; stroke-dashoffset: 0; stroke-linejoin: miter; stroke-miterlimit: 4; fill: rgb(233,215,140); fill-rule: nonzero; opacity: 1;" vector-effect="non-scaling-stroke"  transform=" translate(-684.63, -569.29)" d="M 646.988892 577.012695 C 648.26709 576.9729 650.05127 577.469055 650.746826 576.812256 C 659.792664 568.270813 668.684143 559.565796 677.803894 550.718323 C 673.471497 546.971313 669.811707 544.006592 666.421143 540.760498 C 665.293579 539.68103 664.05835 537.712402 664.322327 536.454468 C 664.603027 535.116516 666.439026 533.495361 667.883789 533.126953 C 672.007324 532.075378 676.275085 531.5849 680.489868 530.896667 C 689.133667 529.485229 697.779907 528.088806 706.749268 526.473938 C 710.837036 525.821106 714.604553 525.411133 718.363281 524.931824 C 722.624329 524.388489 724.612 526.09668 724.184631 530.491211 C 723.35498 539.024048 722.588257 547.563049 721.834229 556.546509 C 721.604187 558.41803 721.33551 559.842651 721.001709 562.035522 C 720.855469 564.193542 720.77417 565.583252 720.692932 566.9729 C 720.136536 570.734131 719.874634 574.573242 718.907898 578.225891 C 718.369751 580.259216 717.033508 582.747742 715.343384 583.577332 C 714.200867 584.138062 711.641113 582.409668 710.030701 581.262512 C 708.154175 579.925781 706.582947 578.144531 704.946472 576.489685 C 698.630066 570.102173 699.92395 570.548828 693.625244 576.722961 C 682.508362 587.619995 671.368286 598.493652 660.300842 609.440674 C 656.131775 613.564331 651.372253 614.951355 645.389648 612.58429 C 645.029968 601.727783 644.944397 591.530701 645.102722 581.337463 C 645.125244 579.886475 646.330872 578.453796 646.988892 577.012695 z" stroke-linecap="round" />
</g>
<g transform="matrix(1 0 0 1 460.79 536.59)"  >
<path style="stroke: none; stroke-width: 1; stroke-dasharray: none; stroke-linecap: butt; stroke-dashoffset: 0; stroke-linejoin: miter; stroke-miterlimit: 4; fill: rgb(184,145,83); fill-rule: nonzero; opacity: 1;" vector-effect="non-scaling-stroke"  transform=" translate(-807.79, -588.09)" d="M 766.47644 633.887146 C 765.010925 632.874146 764.012085 631.829468 763.030823 630.395813 C 771.369934 611.553833 779.6875 593.098999 788.014709 574.648499 C 792.592407 564.505859 797.014099 554.284851 801.96582 544.32782 C 802.67688 542.89801 805.9422 542.38208 808.0979 542.166077 C 809.311157 542.044434 811.346741 543.076111 811.861877 544.143311 C 816.455872 553.659668 820.849731 563.274475 825.194519 572.908936 C 834.190552 592.857422 843.1203 612.835815 852.552124 633.860291 C 844.361877 633.860291 836.986938 633.952393 829.62085 633.739075 C 828.739319 633.713562 827.608093 632.166382 827.10321 631.085876 C 825.204102 627.022217 823.394714 622.906311 821.793335 618.717529 C 820.767395 616.03418 819.286011 614.825012 816.250671 614.88446 C 807.924072 615.047668 799.583435 615.091736 791.264099 614.773376 C 787.120972 614.614868 784.953308 615.798462 783.684082 619.980713 C 781.844604 626.042175 781.067017 626.232422 775.822449 624.946106 C 777.686707 620.490784 779.36908 616.025452 781.478516 611.771912 C 781.948853 610.823608 783.915222 610.160217 785.201843 610.145447 C 796.530212 610.015015 807.863586 609.932373 819.187134 610.196594 C 820.842163 610.235291 823.050354 611.81311 823.960999 613.311707 C 825.932678 616.556335 827.545288 620.108276 828.721985 623.724182 C 830.171387 628.177979 832.897827 629.676208 837.348816 629.029541 C 839.289551 628.747559 841.305298 628.982117 844.365295 628.982117 C 841.796509 622.75647 839.610596 617.137085 837.180115 611.625488 C 828.133301 591.110046 819.024841 570.621765 809.862427 550.157776 C 809.318115 548.942139 808.098389 548.028809 807.192932 546.974854 C 806.114441 548.041931 804.597656 548.913757 804.022522 550.205017 C 794.011536 572.681763 784.105652 595.205383 774.206665 617.731873 C 772.69519 621.171509 771.332703 624.676575 769.554077 628.994507 C 774.511902 628.994507 778.637329 629.279663 782.679932 628.82605 C 783.942566 628.684387 785.643433 626.717957 786.006958 625.296265 C 787.511108 619.413879 790.979797 617.465393 796.916077 618.079529 C 802.026184 618.608215 807.24939 617.965149 812.391724 618.305786 C 814.132812 618.421082 815.779541 619.960205 817.469421 620.848572 C 817.258545 621.568604 817.047668 622.288696 816.836792 623.008789 C 810.63269 623.008789 804.415588 623.253174 798.228882 622.925232 C 793.911987 622.696411 790.8703 623.44342 789.760071 628.21405 C 788.697937 632.778015 785.692444 634.408203 780.929077 633.942383 C 776.308533 633.490601 771.608398 633.85144 766.47644 633.887146 z" stroke-linecap="round" />
</g>
<g transform="matrix(1 0 0 1 523.47 536.41)"  >
<path style="stroke: none; stroke-width: 1; stroke-dasharray: none; stroke-linecap: butt; stroke-dashoffset: 0; stroke-linejoin: miter; stroke-miterlimit: 4; fill: rgb(184,145,83); fill-rule: nonzero; opacity: 1;" vector-effect="non-scaling-stroke"  transform=" translate(-870.46, -587.91)" d="M 864.979187 628.848938 C 868.76178 628.848938 872.544373 628.848938 876.950562 628.848938 C 876.950562 626.61908 876.950623 624.842468 876.950562 623.065857 C 876.949158 598.093079 876.947021 573.120361 876.94812 548.147583 C 876.948181 546.815979 876.636047 545.348572 877.097473 544.195862 C 877.464478 543.279175 878.730286 542.344177 879.71637 542.192322 C 880.327393 542.098328 881.704956 543.389954 881.794678 544.168457 C 882.078918 546.634155 881.929016 549.15094 881.930054 551.64801 C 881.940308 575.788269 881.947083 599.928467 881.998535 624.536133 C 882.042297 627.772644 882.042297 630.541687 882.042297 633.628479 C 874.155884 633.628479 866.961121 633.628479 858.981934 633.628479 C 858.981934 617.616272 858.981934 601.777222 858.934204 585.471924 C 858.886475 570.894653 858.886475 556.783569 858.886475 542.337646 C 863.817505 542.337646 868.047485 542.337646 872.735229 542.337646 C 872.837769 544.080933 873.013306 545.68512 873.014404 547.289368 C 873.030823 571.442444 873.056702 595.595581 872.962219 619.748291 C 872.95459 621.700378 874.400085 625.055237 870.395203 624.918091 C 866.463318 624.783325 868.078674 621.454163 868.068481 619.53064 C 867.951233 597.377075 867.992249 575.222656 867.988525 553.068481 C 867.988342 551.736084 868.16626 550.358582 867.8797 549.088196 C 867.709595 548.33429 866.791687 547.749023 866.210083 547.087891 C 865.482239 547.766968 864.541992 548.331543 864.094666 549.161743 C 863.744507 549.811584 863.995239 550.790527 863.995605 551.62323 C 864.004822 576.775574 864.016113 601.927856 864.117798 627.769897 C 864.38208 628.75415 864.638977 628.883911 864.979187 628.848938 z" stroke-linecap="round" />
</g>
<g transform="matrix(1 0 0 1 464.3 538.88)"  >
<path style="stroke: none; stroke-width: 1; stroke-dasharray: none; stroke-linecap: butt; stroke-dashoffset: 0; stroke-linejoin: miter; stroke-miterlimit: 4; fill: rgb(184,145,83); fill-rule: nonzero; opacity: 1;" vector-effect="non-scaling-stroke"  transform=" translate(-811.3, -590.38)" d="M 802.014404 602.870483 C 805.918213 602.870056 809.336365 602.870056 813.928467 602.870056 C 811.522034 597.290771 809.595947 592.825073 807.545471 588.071106 C 803.349792 590.869141 805.532593 598.802246 797.076477 598.965576 C 800.370056 590.747559 803.278015 583.491821 806.185974 576.236084 C 806.615234 576.151001 807.044556 576.065857 807.473816 575.980713 C 812.039246 585.892456 816.604675 595.804199 821.495483 606.422363 C 808.649597 606.422363 796.54126 606.422363 783.534607 606.422363 C 791.264709 588.929871 798.773132 571.939087 806.281555 554.948242 C 806.733826 554.951233 807.186096 554.954163 807.638367 554.957153 C 818.104248 578.292236 828.57019 601.62738 839.070679 625.03949 C 835.003723 626.91333 833.350464 625.122192 832.056152 622.139038 C 824.381653 604.451111 816.645813 586.789795 808.91626 569.125854 C 808.47522 568.11792 807.907776 567.165283 806.824585 565.081238 C 801.455444 577.948914 796.488037 589.85376 791.056519 602.870972 C 795.352661 602.870972 798.440735 602.870972 802.014404 602.870483 z" stroke-linecap="round" />
</g>
<g transform="matrix(1 0 0 1 243.5 545.15)"  >
<path style="stroke: none; stroke-width: 1; stroke-dasharray: none; stroke-linecap: butt; stroke-dashoffset: 0; stroke-linejoin: miter; stroke-miterlimit: 4; fill: rgb(200,169,103); fill-rule: nonzero; opacity: 1;" vector-effect="non-scaling-stroke"  transform=" translate(-590.51, -596.65)" d="M 589.854126 574.28772 C 595.318848 568.750427 600.604492 563.480042 605.977417 558.300415 C 609.099548 555.290527 612.312683 552.320251 617.612427 553.576965 C 618.003967 563.548706 617.940186 572.996338 618.03772 582.4422 C 618.059326 584.531555 618.650879 586.61499 618.97998 588.701172 C 615.396301 591.592041 611.812683 594.482849 608.091187 597.679565 C 595.169861 610.60614 582.390137 623.230591 569.598328 635.842773 C 568.059326 637.360229 566.455017 638.811523 564.403381 640.019226 C 563.62207 637.987244 563.074158 636.231934 563.055969 634.471252 C 562.965454 625.737671 563.075989 617.001953 562.96991 608.268738 C 562.944641 606.182739 562.361328 604.103516 562.034668 602.021179 C 571.260315 592.878357 580.485901 583.735535 589.854126 574.28772 z" stroke-linecap="round" />
</g>
<g transform="matrix(1 0 0 1 203.07 573.76)"  >
<path style="stroke: none; stroke-width: 1; stroke-dasharray: none; stroke-linecap: butt; stroke-dashoffset: 0; stroke-linejoin: miter; stroke-miterlimit: 4; fill: rgb(184,145,83); fill-rule: nonzero; opacity: 1;" vector-effect="non-scaling-stroke"  transform=" translate(-550.07, -625.26)" d="M 561.72052 602.138428 C 562.361328 604.103516 562.944641 606.182739 562.96991 608.268738 C 563.075989 617.001953 562.965454 625.737671 563.055969 634.471252 C 563.074158 636.231934 563.62207 637.987244 564.10498 640.197693 C 558.584778 648.203552 550.024231 650.497498 542.997986 646.354492 C 534.460449 641.320312 533.596741 630.343201 541.340881 622.286316 C 547.888611 615.474121 554.70752 608.922607 561.72052 602.138428 z" stroke-linecap="round" />
</g>
<g transform="matrix(1 0 0 1 586.03 536.46)"  >
<path style="stroke: none; stroke-width: 1; stroke-dasharray: none; stroke-linecap: butt; stroke-dashoffset: 0; stroke-linejoin: miter; stroke-miterlimit: 4; fill: rgb(200,169,103); fill-rule: nonzero; opacity: 1;" vector-effect="non-scaling-stroke"  transform=" translate(-933.04, -587.96)" d="M 921.617554 572.66333 C 909.806396 588.576904 917.175476 607.528259 936.206299 610.459167 C 939.553528 610.97467 943.195496 609.57605 947.532654 608.93927 C 946.320312 607.556885 946.142456 607.158386 945.927612 607.137329 C 935.10321 606.078979 934.654175 605.421936 936.866394 593.366638 C 944.554199 593.366638 952.307129 593.366638 960.876221 593.366638 C 960.876221 600.775696 961.655823 608.31427 960.463196 615.526733 C 960.032288 618.132935 955.142517 620.557678 951.829163 622.042419 C 927.805603 632.807373 902.549011 612.117432 901.664368 591.455322 C 900.942444 574.593506 907.980042 562.380554 919.836304 555.915588 C 935.036804 547.627075 952.257385 549.940674 963.317322 560.799744 C 963.657959 561.134155 963.858948 561.610901 964.459473 562.537109 C 961.682495 565.761658 958.835815 569.0672 956.066589 572.282776 C 939.793274 563.146912 931.480835 563.248596 921.617554 572.66333 M 941.509705 598.601929 C 942.461487 599.699646 943.261658 601.50293 944.397034 601.746887 C 946.702454 602.242432 949.189087 601.89502 951.488647 601.89502 C 952.623718 611.890747 951.986389 612.923279 944.17749 614.758972 C 934.045837 617.140747 922.043274 612.506836 915.9646 603.866699 C 908.821777 593.713989 909.285767 579.684265 917.069397 570.45929 C 925.437927 560.541199 939.286133 557.702881 951.000244 563.74469 C 953.730103 565.152649 955.813965 565.958923 957.471375 562.611389 C 944.647217 552.622253 928.147888 553.564209 916.113281 564.918335 C 904.613831 575.767334 902.805725 593.583862 911.908936 606.345459 C 921.076965 619.197876 938.457703 623.736145 952.259583 616.729248 C 953.736084 615.979736 955.674683 614.377808 955.792358 613.030884 C 956.218811 608.150024 955.960449 603.20929 955.960449 598.158264 C 950.864746 598.158264 946.553162 598.158264 941.509705 598.601929 z" stroke-linecap="round" />
</g>
<g transform="matrix(1 0 0 1 584.7 536.77)"  >
<path style="stroke: none; stroke-width: 1; stroke-dasharray: none; stroke-linecap: butt; stroke-dashoffset: 0; stroke-linejoin: miter; stroke-miterlimit: 4; fill: rgb(200,169,103); fill-rule: nonzero; opacity: 1;" vector-effect="non-scaling-stroke"  transform=" translate(-931.7, -588.27)" d="M 966.038086 624.655151 C 960.684387 627.277771 955.702026 629.979675 950.436462 631.908569 C 935.738647 637.292419 922.622192 632.980164 910.826477 624.073486 C 895.493408 612.495728 890.426147 596.151428 893.415466 578.023621 C 895.1203 567.68457 900.588135 558.117859 909.918213 551.315796 C 928.023987 538.273132 953.756714 538.897278 970.799988 555.923706 C 970.039429 556.88739 969.255981 557.879944 968.46521 558.881897 C 967.794739 558.678711 967.248474 558.656677 966.894348 558.384644 C 959.564575 552.755127 951.818176 548.605713 942.289124 547.316223 C 921.747009 544.536316 899.79364 561.415222 897.959351 582.158569 C 896.438599 599.356018 902.054382 613.307312 916.98584 622.659607 C 928.892944 630.117676 941.207886 630.937866 954.382385 625.196045 C 962.449341 621.680115 966.524353 617.268799 965.132019 608.006592 C 964.233337 602.028381 964.963074 595.80542 964.963074 589.10437 C 956.449951 589.10437 948.500549 589.205933 940.558533 589.010742 C 939.126953 588.975586 937.725342 587.719421 936.309875 587.026978 C 937.713989 586.080078 939.093384 584.359558 940.526367 584.313904 C 948.846008 584.04834 957.180054 584.276489 965.50531 584.121704 C 968.739563 584.061523 969.934937 585.207153 969.889526 588.469177 C 969.750427 598.460876 970.03064 608.462585 969.676392 618.443604 C 969.604858 620.460571 967.465942 622.404114 966.038086 624.655151 z" stroke-linecap="round" />
</g>
<g transform="matrix(1 0 0 1 671.15 490.34)"  >
<path style="stroke: none; stroke-width: 1; stroke-dasharray: none; stroke-linecap: butt; stroke-dashoffset: 0; stroke-linejoin: miter; stroke-miterlimit: 4; fill: rgb(90,94,101); fill-rule: nonzero; opacity: 1;" vector-effect="non-scaling-stroke"  transform=" translate(-1018.15, -541.83)" d="M 1018.953857 541.566406 C 1018.561951 541.942688 1018.120422 542.029846 1017.341309 542.098938 C 1017.637207 541.813049 1018.270752 541.545166 1018.953857 541.566406 z" stroke-linecap="round" />
</g>
<g transform="matrix(1 0 0 1 517.52 576.99)"  >
<path style="stroke: none; stroke-width: 1; stroke-dasharray: none; stroke-linecap: butt; stroke-dashoffset: 0; stroke-linejoin: miter; stroke-miterlimit: 4; fill: rgb(90,94,101); fill-rule: nonzero; opacity: 1;" vector-effect="non-scaling-stroke"  transform=" translate(-864.52, -628.48)" d="M 864.878357 628.670044 C 864.638977 628.883911 864.38208 628.75415 864.163208 628.237549 C 864.382996 628.111389 864.602844 628.269897 864.878357 628.670044 z" stroke-linecap="round" />
</g>
<g transform="matrix(1 0 0 1 285.42 531.52)"  >
<path style="stroke: none; stroke-width: 1; stroke-dasharray: none; stroke-linecap: butt; stroke-dashoffset: 0; stroke-linejoin: miter; stroke-miterlimit: 4; fill: rgb(212,188,119); fill-rule: nonzero; opacity: 1;" vector-effect="non-scaling-stroke"  transform=" translate(-632.43, -583.01)" d="M 619.212036 588.964355 C 618.650879 586.61499 618.059326 584.531555 618.03772 582.4422 C 617.940186 572.996338 618.003967 563.548706 618.021729 553.64856 C 621.266724 554.559326 625.131897 555.214172 627.610901 557.42395 C 634.305725 563.391724 640.410645 570.02124 646.869263 576.700439 C 646.330872 578.453796 645.125244 579.886475 645.102722 581.337463 C 644.944397 591.530701 645.029968 601.727783 645.045532 612.378784 C 642.992065 611.57074 640.611389 610.634155 638.925842 608.986389 C 632.312988 602.521851 625.91925 595.833069 619.212036 588.964355 z" stroke-linecap="round" />
</g>
<g transform="matrix(1 0 0 1 676.94 536.34)"  >
<path style="stroke: none; stroke-width: 1; stroke-dasharray: none; stroke-linecap: butt; stroke-dashoffset: 0; stroke-linejoin: miter; stroke-miterlimit: 4; fill: rgb(212,188,119); fill-rule: nonzero; opacity: 1;" vector-effect="non-scaling-stroke"  transform=" translate(-1023.94, -587.85)" d="M 1046.961426 617.012573 C 1026.655273 632.353271 1001.162354 623.479065 991.469666 605.096069 C 984.355957 591.60437 985.220703 578.180847 993.948242 566.002319 C 1002.871826 553.550171 1015.841553 549.124084 1030.851196 551.430847 C 1046.464722 553.830383 1056.354858 563.037964 1059.951294 578.351013 C 1063.5271 593.575745 1059.32666 606.586731 1046.961426 617.012573 M 1048.005249 609.48053 C 1048.539917 608.843323 1049.125 608.241577 1049.601685 607.563538 C 1057.45459 596.392517 1058.904907 584.418396 1052.522705 572.3349 C 1045.7229 559.460693 1034.25415 554.406921 1020.001465 555.93689 C 1007.24231 557.30658 998.609009 564.562134 993.949585 576.267822 C 988.239319 590.613525 993.849487 606.288635 1007.452454 615.311707 C 1019.78656 623.493042 1035.595215 621.397766 1048.005249 609.48053 z" stroke-linecap="round" />
</g>
<g transform="matrix(1 0 0 1 676.9 536.63)"  >
<path style="stroke: none; stroke-width: 1; stroke-dasharray: none; stroke-linecap: butt; stroke-dashoffset: 0; stroke-linejoin: miter; stroke-miterlimit: 4; fill: rgb(212,188,119); fill-rule: nonzero; opacity: 1;" vector-effect="non-scaling-stroke"  transform=" translate(-1023.9, -588.13)" d="M 1035.87085 561.889343 C 1048.185547 568.127136 1053.230225 578.192017 1051.938721 591.177734 C 1050.758423 603.04718 1044.005249 611.277588 1032.647949 614.855835 C 1021.780212 618.279846 1011.871216 615.840515 1003.871216 607.445618 C 995.444336 598.602783 993.585999 588.131836 997.922668 576.953735 C 1001.829224 566.88446 1009.433289 560.579529 1020.462219 559.944397 C 1025.431396 559.658203 1030.498901 561.083435 1035.87085 561.889343 M 1047.254272 588.407532 C 1046.974121 572.613586 1035.958252 562.722046 1020.911072 564.752991 C 1007.862122 566.514221 999.940918 576.683594 1000.881592 590.467346 C 1001.647644 601.691711 1011.997925 610.949158 1023.893372 611.049377 C 1036.516968 611.15564 1046.252808 602.091431 1047.254272 588.407532 z" stroke-linecap="round" />
</g>
</svg>