<svg version="1.1" id="Layer_1" xmlns="http://www.w3.org/2000/svg" xmlns:xlink="http://www.w3.org/1999/xlink" x="0px" y="0px"
	 width="100%" viewBox="0 0 1772 1181" enable-background="new 0 0 1772 1181" xml:space="preserve">
<path fill="#FEFEFE" opacity="1.000000" stroke="none" 
	d="
M1303.000000,1182.000000 
	C868.666748,1182.000000 434.833496,1182.000000 1.000175,1182.000000 
	C1.000116,788.333496 1.000116,394.666962 1.000058,1.000333 
	C591.666443,1.000222 1182.332886,1.000222 1772.999512,1.000111 
	C1772.999634,394.666351 1772.999634,788.332703 1772.999756,1181.999512 
	C1616.500000,1182.000000 1460.000000,1182.000000 1303.000000,1182.000000 
M821.082214,236.229111 
	C800.049988,236.293274 779.017822,236.357452 757.068970,236.232025 
	C736.148193,236.215622 715.227417,236.165726 694.306702,236.194229 
	C679.536621,236.214371 664.766724,236.340851 649.076660,236.233490 
	C617.674500,236.216690 586.272339,236.180603 554.870178,236.194641 
	C545.240967,236.198944 535.611694,236.340561 525.065674,236.231369 
	C492.502106,236.214584 459.938568,236.180267 427.375000,236.192551 
	C418.577057,236.195877 409.779144,236.340363 400.064453,236.232376 
	C389.569275,236.219589 379.074127,236.195251 368.578949,236.196915 
	C355.406555,236.199005 349.089996,242.575226 349.089447,255.863495 
	C349.080078,478.768463 349.072083,701.673401 349.066315,924.578369 
	C349.065979,937.945557 355.184265,944.014404 368.638550,944.013550 
	C471.927826,944.006836 575.217102,943.999451 678.506409,943.984253 
	C680.335449,943.984009 682.164429,943.884521 684.920837,943.982727 
	C738.638428,943.986267 792.356018,943.998474 846.073608,943.985840 
	C856.713806,943.983337 867.354065,943.885315 878.921753,943.981140 
	C957.284607,943.984131 1035.647461,943.987671 1114.010376,943.983459 
	C1115.005127,943.983398 1116.000000,943.884216 1117.922119,943.980896 
	C1146.552002,943.987366 1175.182007,943.998596 1203.811890,943.999390 
	C1269.561035,944.001282 1335.310059,944.004517 1401.059204,943.990723 
	C1411.476318,943.988525 1418.736694,937.609497 1418.912964,927.955383 
	C1419.088989,918.309204 1418.852417,908.655518 1418.949829,898.078186 
	C1418.898682,876.719543 1418.847534,855.360840 1418.948608,833.075745 
	C1418.898560,800.385864 1418.848389,767.695923 1418.953003,734.079468 
	C1418.957520,697.172424 1418.980835,660.265381 1418.958252,623.358337 
	C1418.946533,604.243164 1418.853760,585.127991 1418.954834,565.085388 
	C1418.952271,461.955688 1418.951050,358.825958 1418.945435,255.696259 
	C1418.944702,242.436996 1412.679077,236.212082 1399.338379,236.209763 
	C1297.874634,236.192169 1196.410767,236.176956 1094.947021,236.173538 
	C1093.288696,236.173477 1091.630371,236.331100 1089.055298,236.236816 
	C1034.358521,236.215530 979.661682,236.192932 924.964905,236.183273 
	C923.974915,236.183090 922.984985,236.337128 921.075012,236.235046 
	C906.634277,236.219421 892.193420,236.167007 877.752747,236.197342 
	C859.169189,236.236359 840.585693,236.341705 821.082214,236.229111 
z"/>
<path fill="#5A5E65" opacity="1.000000" stroke="none" 
	d="
M1418.797607,566.012817 
	C1418.853760,585.127991 1418.946533,604.243164 1418.958252,623.358337 
	C1418.980835,660.265381 1418.957520,697.172424 1418.420410,734.541504 
	C1404.322021,734.329285 1390.754639,733.684265 1377.193115,732.932495 
	C1375.930298,732.862549 1374.722778,732.053284 1373.458618,731.696594 
	C1371.292480,731.085510 1369.130249,730.263550 1366.916626,730.053101 
	C1358.690552,729.270935 1350.402100,729.023376 1342.219238,727.949341 
	C1335.881592,727.117432 1329.691040,725.221008 1323.390015,724.037354 
	C1316.907593,722.819519 1310.239380,722.393250 1303.886108,720.728882 
	C1292.135864,717.650696 1280.564941,713.891846 1268.899902,710.483215 
	C1265.576416,709.512146 1262.080322,709.058228 1258.845215,707.871521 
	C1248.808594,704.189575 1238.853638,700.283813 1228.880493,696.430237 
	C1226.716797,695.594238 1224.576416,694.682129 1222.481201,693.687378 
	C1216.423462,690.811401 1210.371460,687.921448 1204.360352,684.950012 
	C1198.352295,681.980225 1192.318115,679.048767 1186.438232,675.838745 
	C1179.564331,672.086060 1172.825439,668.083252 1166.068481,664.119934 
	C1163.528198,662.629883 1161.122192,660.913086 1158.618652,659.357727 
	C1152.754272,655.714111 1146.837036,652.154358 1141.002441,648.463806 
	C1137.797852,646.436829 1134.701416,644.236633 1131.584106,642.074341 
	C1123.134888,636.213135 1115.887085,628.578491 1106.029053,624.779419 
	C1105.552002,624.595459 1105.328247,623.754211 1105.451660,623.158569 
	C1110.872070,623.098206 1115.827393,623.098206 1120.828979,623.098206 
	C1121.099487,619.395691 1119.616699,618.144592 1116.464478,618.207642 
	C1110.649414,618.324097 1104.808228,618.558655 1099.020020,618.149780 
	C1094.239746,617.812134 1091.560791,619.241516 1090.466553,624.102417 
	C1090.065430,625.884460 1088.373901,628.509277 1086.968140,628.718811 
	C1082.821167,629.336975 1078.522827,628.939514 1073.413696,628.939514 
	C1076.218628,622.498596 1078.692749,616.949890 1081.057617,611.354919 
	C1084.468506,603.285339 1087.800049,595.182190 1091.403198,586.843506 
	C1093.356812,582.807556 1095.096680,579.032227 1096.783447,575.233276 
	C1100.555786,566.737427 1104.248657,558.205505 1108.118896,549.754761 
	C1108.653442,548.587646 1110.070435,546.982971 1110.974976,547.047058 
	C1112.027466,547.121704 1113.018311,548.765198 1113.929688,549.819580 
	C1114.348633,550.304138 1114.525391,551.002563 1114.793579,551.612122 
	C1123.563599,571.537109 1132.342529,591.458191 1141.092163,611.392090 
	C1143.536133,616.960266 1145.893066,622.566650 1148.657227,629.011963 
	C1145.474365,629.011963 1143.169189,628.763123 1140.938721,629.065247 
	C1136.684204,629.641663 1134.168579,628.284302 1132.809692,623.959778 
	C1131.623535,620.184265 1129.787231,616.550293 1127.771484,613.128723 
	C1126.961060,611.753052 1124.922119,610.295227 1123.414062,610.264587 
	C1112.091919,610.034302 1100.762207,610.101685 1089.436401,610.226685 
	C1088.131714,610.241028 1086.138428,610.821777 1085.658203,611.754517 
	C1083.482056,615.981384 1081.734253,620.428833 1079.765747,624.949646 
	C1083.497437,626.342285 1085.903320,625.817017 1086.629272,622.132935 
	C1087.916748,615.599609 1091.975220,614.041260 1098.155884,614.587341 
	C1104.605103,615.157104 1111.156128,615.143799 1117.624146,614.751282 
	C1122.606934,614.448975 1125.208008,616.077698 1126.514771,620.969421 
	C1127.444580,624.449707 1129.388672,627.677673 1131.044067,630.934875 
	C1131.594360,632.017578 1132.630981,633.634033 1133.484741,633.659119 
	C1140.855469,633.875305 1148.235229,633.783508 1156.091797,633.783508 
	C1155.501221,632.029846 1155.266113,631.075012 1154.869751,630.192749 
	C1142.264526,602.138184 1129.598999,574.110474 1117.090088,546.013062 
	C1115.751709,543.006714 1113.654297,542.989197 1111.066895,542.934326 
	C1108.289307,542.875305 1106.077637,542.977600 1104.726685,546.165833 
	C1099.090332,559.467102 1093.209351,572.664734 1087.195679,586.129028 
	C1084.994141,590.574829 1083.015137,594.791931 1080.683838,598.971619 
	C1076.740967,597.268494 1075.361572,591.784912 1070.052002,592.544983 
	C1072.202881,565.733215 1051.691895,541.460022 1023.990723,541.383179 
	C1022.840393,538.344666 1021.943787,535.534058 1020.465332,533.072998 
	C1018.942627,530.538330 1016.640747,528.479370 1015.048706,525.977539 
	C1008.636292,515.900269 1002.267761,505.792267 996.071899,495.581024 
	C989.926758,485.453217 983.335083,475.516602 978.151794,464.903931 
	C970.733032,449.714050 964.183167,434.082611 957.704956,418.456177 
	C952.801880,406.629150 948.092896,394.673798 944.210815,382.484650 
	C940.264771,370.094757 936.987854,357.445587 934.243408,344.731781 
	C931.333313,331.250519 928.623596,317.639435 927.205750,303.942291 
	C924.882141,281.495331 923.673706,258.932922 921.994995,236.419220 
	C922.984985,236.337128 923.974915,236.183090 924.964905,236.183273 
	C979.661682,236.192932 1034.358521,236.215530 1089.518066,236.714554 
	C1093.768555,243.840973 1088.937134,251.618515 1092.761963,258.385254 
	C1093.434692,259.575348 1092.092529,261.792511 1092.013550,263.550293 
	C1091.933594,265.327881 1092.154663,267.141998 1092.438477,268.908844 
	C1093.484375,275.416779 1094.652100,281.905457 1095.646973,288.420776 
	C1095.752319,289.110779 1094.952393,289.906555 1094.700562,290.694244 
	C1094.509888,291.290649 1094.306641,292.020264 1094.479980,292.574585 
	C1096.262085,298.270752 1098.355957,303.881714 1099.858154,309.647919 
	C1100.619141,312.569489 1099.786255,315.932983 1100.665771,318.791504 
	C1102.450195,324.590454 1105.539062,330.035950 1106.898438,335.903259 
	C1108.057495,340.906158 1108.500244,345.722870 1111.815674,350.190430 
	C1114.416138,353.694580 1115.310181,358.485626 1116.849609,362.745728 
	C1117.402588,364.276398 1117.616455,365.928467 1118.003418,367.520691 
	C1118.307861,368.773956 1118.378418,370.173920 1119.005127,371.243744 
	C1122.015137,376.381744 1125.348389,381.335022 1128.251465,386.530151 
	C1133.570068,396.048126 1137.900146,406.216309 1144.036011,415.156830 
	C1153.203003,428.513947 1163.552856,441.061127 1173.456665,453.908844 
	C1175.375488,456.398102 1177.402100,458.843475 1179.646729,461.034851 
	C1185.503784,466.752991 1191.486206,472.343719 1197.464478,477.936310 
	C1200.908936,481.158539 1204.288574,484.478546 1207.968872,487.414246 
	C1214.973755,493.001984 1222.184326,498.331268 1229.287476,503.796600 
	C1233.144897,506.764587 1236.540039,511.184814 1240.881470,512.483215 
	C1248.395630,514.730347 1253.459106,520.410339 1260.094116,523.708557 
	C1270.096802,528.680725 1279.992554,533.868591 1290.004395,538.821838 
	C1291.580811,539.601807 1293.548218,539.559509 1295.302002,540.021851 
	C1297.535034,540.610596 1299.817261,541.130005 1301.933228,542.023193 
	C1308.827637,544.933411 1315.655273,548.001709 1322.512329,551.000610 
	C1322.814209,551.132629 1323.150513,551.191589 1323.475098,551.265381 
	C1333.489502,553.541931 1343.478394,555.941223 1353.531738,558.030884 
	C1357.717041,558.900879 1362.096558,558.828125 1366.288696,559.675171 
	C1376.472412,561.732666 1386.495239,564.321228 1397.077515,564.156494 
	C1404.306152,564.044006 1411.556763,565.344238 1418.797607,566.012817 
M1231.686523,563.072021 
	C1231.686523,556.145508 1231.686523,549.218994 1231.686523,542.184509 
	C1209.821167,542.184509 1188.412109,542.184509 1166.467041,542.184509 
	C1166.467041,545.273804 1166.710693,548.097717 1166.409668,550.862305 
	C1165.960449,554.986816 1167.767700,555.870728 1171.565063,555.828369 
	C1187.056763,555.655396 1202.551758,555.781250 1218.045532,555.771606 
	C1219.496582,555.770691 1220.947510,555.591003 1222.557739,555.483704 
	C1222.557739,553.696777 1222.557739,552.287170 1222.557739,550.365479 
	C1219.819458,550.365479 1217.352539,550.364380 1214.885498,550.365662 
	C1201.724121,550.372559 1188.562500,550.425842 1175.402222,550.307983 
	C1174.242432,550.297546 1173.092529,549.169495 1171.938110,548.560669 
	C1173.097900,547.975952 1174.246216,547.366150 1175.426025,546.825012 
	C1175.701538,546.698669 1176.083862,546.804749 1176.417114,546.804932 
	C1191.910889,546.815247 1207.404541,546.815125 1222.898315,546.855652 
	C1224.155762,546.858948 1225.412354,547.140747 1226.688477,547.295410 
	C1226.688477,551.276550 1226.688477,554.871338 1226.688477,559.084290 
	C1216.376343,559.084290 1206.317627,559.084290 1196.115234,559.084290 
	C1196.115234,581.447754 1196.115234,603.185730 1196.115234,624.914734 
	C1200.440796,626.437927 1200.764404,624.063660 1200.755493,620.962708 
	C1200.706543,603.803101 1200.730591,586.643250 1200.754639,569.483521 
	C1200.757080,567.740479 1200.926636,565.997620 1201.045898,563.738037 
	C1211.433838,563.738037 1221.237061,563.738037 1231.686523,563.072021 
M1097.562012,606.815796 
	C1106.603882,606.815796 1115.645630,606.815796 1125.480957,606.815796 
	C1120.443848,595.702454 1115.865601,585.601624 1110.870239,574.580505 
	C1107.362915,583.277100 1104.331543,590.793884 1101.183594,598.599487 
	C1110.155762,600.042908 1106.792725,590.529297 1111.484619,588.037842 
	C1113.461914,592.527893 1115.425171,596.986267 1117.669922,602.083923 
	C1109.907715,602.083923 1103.065552,602.083923 1095.255859,602.083923 
	C1100.520752,589.547913 1105.502563,577.685730 1110.905396,564.821045 
	C1112.054810,567.167358 1112.597778,568.183594 1113.060913,569.234985 
	C1120.899414,587.029785 1128.777588,604.807373 1136.512085,622.647278 
	C1137.878906,625.799927 1139.686279,626.398376 1142.975220,624.965149 
	C1132.384888,601.371887 1121.913696,578.043945 1110.927368,553.568665 
	C1102.757568,571.993164 1095.244873,588.935852 1087.316895,606.815125 
	C1091.072021,606.815125 1093.829590,606.815125 1097.562012,606.815796 
M1167.159424,563.290649 
	C1173.547852,563.645142 1179.936157,563.999634 1187.012939,564.392334 
	C1187.012939,587.531189 1187.012939,610.539246 1187.012939,633.891174 
	C1193.847656,633.891174 1199.988770,633.777954 1206.122803,633.939087 
	C1209.161865,634.018921 1209.713501,632.514099 1209.707886,629.954529 
	C1209.665161,610.475281 1209.642456,590.995605 1209.737427,571.516663 
	C1209.755737,567.767883 1208.091919,567.436646 1204.743164,568.505981 
	C1204.743164,588.489563 1204.743164,608.395386 1204.743164,628.481689 
	C1200.247070,628.481689 1196.220947,628.481689 1191.673950,628.481689 
	C1191.673950,605.198425 1191.673950,582.307373 1191.673950,559.058228 
	C1184.015747,559.058228 1176.875000,558.927490 1169.750366,559.207458 
	C1168.750977,559.246765 1167.830688,561.298157 1167.159424,563.290649 
z"/>
<path fill="#4F545B" opacity="1.000000" stroke="none" 
	d="
M1418.796753,899.005127 
	C1418.852417,908.655518 1419.088989,918.309204 1418.912964,927.955383 
	C1418.736694,937.609497 1411.476318,943.988525 1401.059204,943.990723 
	C1335.310059,944.004517 1269.561035,944.001282 1203.811890,943.999390 
	C1175.182007,943.998596 1146.552002,943.987366 1117.412720,943.558594 
	C1115.466919,938.942444 1111.353516,939.844238 1108.385986,938.433655 
	C1099.560059,934.238464 1091.059814,929.365112 1082.347900,924.922058 
	C1074.178467,920.755615 1065.851929,916.896301 1057.699341,912.698181 
	C1054.922852,911.268555 1052.632446,908.877258 1049.833862,907.511536 
	C1035.258545,900.398682 1020.694580,893.307068 1008.136353,882.789368 
	C1007.157898,881.970032 1005.772705,881.640015 1004.583557,881.067993 
	C1002.074280,879.860962 999.380493,878.921875 997.103699,877.371582 
	C992.790894,874.435120 988.572205,871.320190 984.574158,867.969543 
	C973.874878,859.002686 961.328552,852.652222 951.024536,842.970703 
	C941.511841,834.032532 930.296814,826.934448 920.222168,818.556152 
	C913.359558,812.849060 907.183777,806.318054 900.674255,800.183777 
	C895.874756,795.660950 890.957458,791.260803 886.226685,786.667969 
	C879.362122,780.003662 872.576355,773.256470 865.836792,766.465454 
	C860.864136,761.454773 855.818909,756.493225 851.167725,751.192505 
	C845.364929,744.579346 839.953674,737.623535 834.335083,730.847412 
	C829.897766,725.495911 825.179260,720.362122 820.978760,714.832886 
	C811.778381,702.721924 802.814636,690.430908 793.781067,678.193665 
	C789.893127,672.926819 786.010620,667.653870 782.241577,662.302124 
	C779.701111,658.694885 777.141113,655.069397 774.987244,651.229248 
	C771.809204,645.563232 768.984741,639.698792 766.476440,633.887146 
	C771.608398,633.851440 776.308533,633.490601 780.929077,633.942383 
	C785.692444,634.408203 788.697937,632.778015 789.760071,628.214050 
	C790.870300,623.443420 793.911987,622.696411 798.228882,622.925232 
	C804.415588,623.253174 810.632690,623.008789 816.836792,623.008789 
	C817.047668,622.288696 817.258545,621.568604 817.469421,620.848572 
	C815.779541,619.960205 814.132812,618.421082 812.391724,618.305786 
	C807.249390,617.965149 802.026184,618.608215 796.916077,618.079529 
	C790.979797,617.465393 787.511108,619.413879 786.006958,625.296265 
	C785.643433,626.717957 783.942566,628.684387 782.679932,628.826050 
	C778.637329,629.279663 774.511902,628.994507 769.554077,628.994507 
	C771.332703,624.676575 772.695190,621.171509 774.206665,617.731873 
	C784.105652,595.205383 794.011536,572.681763 804.022522,550.205017 
	C804.597656,548.913757 806.114441,548.041931 807.192932,546.974854 
	C808.098389,548.028809 809.318115,548.942139 809.862427,550.157776 
	C819.024841,570.621765 828.133301,591.110046 837.180115,611.625488 
	C839.610596,617.137085 841.796509,622.756470 844.365295,628.982117 
	C841.305298,628.982117 839.289551,628.747559 837.348816,629.029541 
	C832.897827,629.676208 830.171387,628.177979 828.721985,623.724182 
	C827.545288,620.108276 825.932678,616.556335 823.960999,613.311707 
	C823.050354,611.813110 820.842163,610.235291 819.187134,610.196594 
	C807.863586,609.932373 796.530212,610.015015 785.201843,610.145447 
	C783.915222,610.160217 781.948853,610.823608 781.478516,611.771912 
	C779.369080,616.025452 777.686707,620.490784 775.822449,624.946106 
	C781.067017,626.232422 781.844604,626.042175 783.684082,619.980713 
	C784.953308,615.798462 787.120972,614.614868 791.264099,614.773376 
	C799.583435,615.091736 807.924072,615.047668 816.250671,614.884460 
	C819.286011,614.825012 820.767395,616.034180 821.793335,618.717529 
	C823.394714,622.906311 825.204102,627.022217 827.103210,631.085876 
	C827.608093,632.166382 828.739319,633.713562 829.620850,633.739075 
	C836.986938,633.952393 844.361877,633.860291 852.552124,633.860291 
	C843.120300,612.835815 834.190552,592.857422 825.194519,572.908936 
	C820.849731,563.274475 816.455872,553.659668 811.861877,544.143311 
	C811.346741,543.076111 809.311157,542.044434 808.097900,542.166077 
	C805.942200,542.382080 802.676880,542.898010 801.965820,544.327820 
	C797.014099,554.284851 792.592407,564.505859 788.014709,574.648499 
	C779.687500,593.098999 771.369934,611.553833 762.698364,629.952698 
	C760.467896,627.052856 758.313477,624.348755 756.756348,621.335876 
	C751.390442,610.953735 746.278503,600.440613 740.982727,590.021729 
	C736.342407,580.892456 731.685486,571.768372 726.806335,562.766357 
	C725.626709,560.590088 723.541626,558.904663 721.834229,556.546509 
	C722.588257,547.563049 723.354980,539.024048 724.184631,530.491211 
	C724.612000,526.096680 722.624329,524.388489 718.363281,524.931824 
	C714.604553,525.411133 710.837036,525.821106 707.052612,525.822510 
	C706.629700,523.127319 706.518250,520.769958 705.773438,518.633301 
	C703.009949,510.705719 700.009521,502.861084 697.152588,494.965546 
	C694.648499,488.045013 692.004578,481.164734 689.805176,474.146698 
	C686.676392,464.162872 683.877502,454.075165 680.978699,444.019989 
	C679.579529,439.166504 678.278687,434.284668 676.925110,429.417969 
	C675.000244,422.497437 672.751709,415.647400 671.236206,408.638641 
	C669.973633,402.799866 670.323669,396.546112 668.604004,390.888092 
	C666.056274,382.505432 664.532898,373.932831 662.357422,365.530670 
	C660.450806,358.166687 663.338867,349.974121 658.170532,343.304688 
	C657.724731,342.729462 658.379761,341.384277 658.323853,340.408203 
	C658.149475,337.365356 657.879211,334.328033 657.646118,331.288544 
	C656.818298,329.702209 657.290649,328.002991 657.199036,326.334778 
	C656.908813,321.051819 656.392822,315.781586 655.992676,310.504272 
	C655.638855,305.838440 655.430115,301.158752 654.955994,296.505707 
	C654.584534,292.859985 654.638916,288.921204 653.208313,285.685486 
	C650.335327,279.187225 655.543945,271.724396 650.366821,265.715881 
	C650.311951,265.652161 650.489258,265.420441 650.500610,265.262970 
	C650.999817,258.318481 651.722351,251.378372 651.869019,244.426147 
	C651.924988,241.771729 650.659790,239.089447 649.996704,236.419861 
	C664.766724,236.340851 679.536621,236.214371 694.306702,236.194229 
	C715.227417,236.165726 736.148193,236.215622 757.530762,236.767212 
	C758.119873,245.053772 758.265381,252.804901 758.369019,260.556580 
	C758.455994,267.061890 758.200012,273.587555 758.635620,280.067932 
	C759.081909,286.705872 760.199890,293.297791 760.995300,299.913330 
	C761.897705,307.417755 762.820251,314.920380 763.628601,322.435120 
	C763.982544,325.725708 763.800659,329.090363 764.345581,332.340363 
	C765.376526,338.489746 766.819763,344.568695 767.976013,350.698730 
	C769.466675,358.601410 770.524841,366.599762 772.346436,374.422455 
	C774.925598,385.498535 777.950195,396.474091 780.934814,407.451691 
	C784.322510,419.911591 787.563782,432.425079 791.454651,444.730042 
	C794.674561,454.913208 798.503235,464.924988 802.495605,474.838135 
	C809.031433,491.066956 815.329834,507.433746 822.822571,523.223083 
	C830.496765,539.394714 839.272339,555.061829 848.020325,570.695496 
	C850.916687,575.871582 855.224182,580.258118 858.934204,585.471924 
	C858.981934,601.777222 858.981934,617.616272 858.981934,633.628479 
	C866.961121,633.628479 874.155884,633.628479 882.042297,633.628479 
	C882.042297,630.541687 882.042297,627.772644 882.389465,625.041016 
	C887.294739,630.663574 891.916992,636.197815 896.394897,641.846497 
	C902.104858,649.049377 907.502625,656.508423 913.401245,663.550232 
	C918.447937,669.574890 924.091797,675.095032 929.325562,680.968323 
	C935.787292,688.219543 941.671448,696.039185 948.576599,702.828613 
	C958.288818,712.378052 968.590393,721.343567 978.861816,730.304504 
	C989.173340,739.300354 999.640503,748.127563 1010.255920,756.762634 
	C1019.961121,764.657410 1029.667847,772.606995 1039.901245,779.780090 
	C1050.802368,787.421143 1062.301392,794.212952 1073.583618,801.305176 
	C1077.766968,803.934998 1082.069458,806.375793 1086.328979,808.883667 
	C1093.001831,812.812378 1099.554932,816.969421 1106.393433,820.586121 
	C1116.291382,825.821045 1126.376709,830.704346 1136.423950,835.653015 
	C1143.832153,839.301819 1151.173096,843.137939 1158.787842,846.303772 
	C1167.476196,849.915955 1176.424316,852.907104 1185.279419,856.113464 
	C1196.121460,860.039307 1206.922852,864.091919 1217.855103,867.751160 
	C1228.975342,871.473206 1240.155273,875.066101 1251.454956,878.187439 
	C1260.972168,880.816650 1270.678223,882.784668 1280.343262,884.845947 
	C1284.038330,885.633972 1287.892212,885.662415 1291.602905,886.395447 
	C1300.488647,888.150635 1309.271484,890.514160 1318.209717,891.894348 
	C1327.998169,893.405823 1337.920776,894.035583 1347.773560,895.149048 
	C1355.484131,896.020447 1363.155273,897.557129 1370.883179,897.891907 
	C1386.840576,898.583191 1402.823975,898.669800 1418.796753,899.005127 
M801.528809,602.870972 
	C798.440735,602.870972 795.352661,602.870972 791.056519,602.870972 
	C796.488037,589.853760 801.455444,577.948914 806.824585,565.081238 
	C807.907776,567.165283 808.475220,568.117920 808.916260,569.125854 
	C816.645813,586.789795 824.381653,604.451111 832.056152,622.139038 
	C833.350464,625.122192 835.003723,626.913330 839.070679,625.039490 
	C828.570190,601.627380 818.104248,578.292236 807.638367,554.957153 
	C807.186096,554.954163 806.733826,554.951233 806.281555,554.948242 
	C798.773132,571.939087 791.264709,588.929871 783.534607,606.422363 
	C796.541260,606.422363 808.649597,606.422363 821.495483,606.422363 
	C816.604675,595.804199 812.039246,585.892456 807.473816,575.980713 
	C807.044556,576.065857 806.615234,576.151001 806.185974,576.236084 
	C803.278015,583.491821 800.370056,590.747559 797.076477,598.965576 
	C805.532593,598.802246 803.349792,590.869141 807.545471,588.071106 
	C809.595947,592.825073 811.522034,597.290771 813.928467,602.870056 
	C809.336365,602.870056 805.918213,602.870056 801.528809,602.870972 
z"/>
<path fill="#40454D" opacity="1.000000" stroke="none" 
	d="
M683.993469,943.831360 
	C682.164429,943.884521 680.335449,943.984009 678.506409,943.984253 
	C575.217102,943.999451 471.927826,944.006836 368.638550,944.013550 
	C355.184265,944.014404 349.065979,937.945557 349.066315,924.578369 
	C349.072083,701.673401 349.080078,478.768463 349.089447,255.863495 
	C349.089996,242.575226 355.406555,236.199005 368.578949,236.196915 
	C379.074127,236.195251 389.569275,236.219589 400.525421,236.715454 
	C401.639160,240.906677 402.761932,244.605392 402.836609,248.325165 
	C402.954346,254.184921 402.364380,260.058685 402.086334,265.927124 
	C402.070892,266.253387 402.043610,266.748901 402.230194,266.889984 
	C406.271759,269.945953 403.698486,273.715210 403.430695,277.254272 
	C403.335449,278.512634 403.584991,279.798645 403.693726,281.070587 
	C404.282928,287.963654 404.878876,294.856171 405.458221,301.750031 
	C405.469666,301.886292 405.232697,302.038574 405.235413,302.181000 
	C405.347260,308.100708 405.135162,314.052307 405.694366,319.930389 
	C406.233856,325.601349 408.431580,331.219482 408.281525,336.817413 
	C408.164612,341.180939 408.098083,345.262604 408.717590,349.671722 
	C409.579529,355.806244 411.944763,361.732086 411.190857,368.234772 
	C410.731018,372.201202 411.229218,376.805511 412.889435,380.384674 
	C416.712708,388.626923 415.007690,397.664001 418.177002,406.263428 
	C422.210846,417.208618 422.447571,429.523956 424.618286,441.193390 
	C426.725739,452.522705 429.100952,463.806091 431.604584,475.054901 
	C432.214355,477.794678 434.278473,480.223419 434.817841,482.963623 
	C435.970978,488.822662 436.276062,494.851257 437.479095,500.697052 
	C438.429993,505.317932 440.237030,509.759399 441.595184,514.301086 
	C442.246704,516.479736 442.593536,518.755920 443.329620,520.901733 
	C446.257874,529.437805 449.398041,537.902466 452.242523,546.465698 
	C454.869659,554.374512 457.162170,562.393982 459.714294,570.328613 
	C461.051636,574.486389 462.605713,578.575562 464.108215,582.678772 
	C465.044250,585.235046 466.013092,587.782043 467.060669,590.294189 
	C470.061676,597.490967 473.093506,604.674988 476.147430,611.849487 
	C477.714203,615.530334 479.579041,619.101257 480.896301,622.866394 
	C482.173492,626.516968 482.460876,630.553894 483.995209,634.066284 
	C487.545654,642.194336 491.561035,650.120667 495.439484,658.103699 
	C497.834656,663.033630 500.527740,667.828430 502.727631,672.841614 
	C506.745056,681.996521 510.440460,691.292175 514.389099,700.478027 
	C515.680481,703.482117 517.248108,706.379639 518.849060,709.236389 
	C525.106323,720.401428 531.319031,731.593689 537.756226,742.654846 
	C543.907104,753.224060 550.313782,763.644409 556.613220,774.127075 
	C558.765991,777.709412 560.882202,781.315125 563.107788,784.851868 
	C566.486084,790.220215 569.814880,795.627136 573.401611,800.855164 
	C578.425842,808.178833 583.295166,815.660767 588.935242,822.493469 
	C593.407227,827.911438 594.852417,835.565125 601.590881,839.303711 
	C602.448792,839.779663 602.425903,841.677490 603.039673,842.790527 
	C604.804321,845.990601 606.157043,849.654846 608.654663,852.154480 
	C611.860779,855.363342 616.746826,857.071594 616.195679,862.896667 
	C616.148499,863.395325 616.757141,864.229980 617.265747,864.464355 
	C622.003418,866.646484 624.763855,870.102905 625.487305,875.423340 
	C625.659790,876.691650 627.716370,877.696106 628.891541,878.837158 
	C631.452820,881.324341 634.130737,883.706970 636.523438,886.347534 
	C638.755554,888.810913 640.334534,891.965576 642.834534,894.059631 
	C645.518433,896.307678 648.545166,897.771973 648.379150,902.085999 
	C648.342346,903.042725 650.679810,904.067139 651.889648,905.100708 
	C654.226135,907.096680 657.648010,908.680115 658.656128,911.215454 
	C661.935547,919.462769 669.497253,923.991516 674.476257,930.724426 
	C677.683777,935.061829 683.751343,937.276184 683.993469,943.831360 
z"/>
<path fill="#464A52" opacity="1.000000" stroke="none" 
	d="
M684.457153,943.907043 
	C683.751343,937.276184 677.683777,935.061829 674.476257,930.724426 
	C669.497253,923.991516 661.935547,919.462769 658.656128,911.215454 
	C657.648010,908.680115 654.226135,907.096680 651.889648,905.100708 
	C650.679810,904.067139 648.342346,903.042725 648.379150,902.085999 
	C648.545166,897.771973 645.518433,896.307678 642.834534,894.059631 
	C640.334534,891.965576 638.755554,888.810913 636.523438,886.347534 
	C634.130737,883.706970 631.452820,881.324341 628.891541,878.837158 
	C627.716370,877.696106 625.659790,876.691650 625.487305,875.423340 
	C624.763855,870.102905 622.003418,866.646484 617.265747,864.464355 
	C616.757141,864.229980 616.148499,863.395325 616.195679,862.896667 
	C616.746826,857.071594 611.860779,855.363342 608.654663,852.154480 
	C606.157043,849.654846 604.804321,845.990601 603.039673,842.790527 
	C602.425903,841.677490 602.448792,839.779663 601.590881,839.303711 
	C594.852417,835.565125 593.407227,827.911438 588.935242,822.493469 
	C583.295166,815.660767 578.425842,808.178833 573.401611,800.855164 
	C569.814880,795.627136 566.486084,790.220215 563.107788,784.851868 
	C560.882202,781.315125 558.765991,777.709412 556.613220,774.127075 
	C550.313782,763.644409 543.907104,753.224060 537.756226,742.654846 
	C531.319031,731.593689 525.106323,720.401428 518.849060,709.236389 
	C517.248108,706.379639 515.680481,703.482117 514.389099,700.478027 
	C510.440460,691.292175 506.745056,681.996521 502.727631,672.841614 
	C500.527740,667.828430 497.834656,663.033630 495.439484,658.103699 
	C491.561035,650.120667 487.545654,642.194336 483.995209,634.066284 
	C482.460876,630.553894 482.173492,626.516968 480.896301,622.866394 
	C479.579041,619.101257 477.714203,615.530334 476.147430,611.849487 
	C473.093506,604.674988 470.061676,597.490967 467.060669,590.294189 
	C466.013092,587.782043 465.044250,585.235046 464.108215,582.678772 
	C462.605713,578.575562 461.051636,574.486389 459.714294,570.328613 
	C457.162170,562.393982 454.869659,554.374512 452.242523,546.465698 
	C449.398041,537.902466 446.257874,529.437805 443.329620,520.901733 
	C442.593536,518.755920 442.246704,516.479736 441.595184,514.301086 
	C440.237030,509.759399 438.429993,505.317932 437.479095,500.697052 
	C436.276062,494.851257 435.970978,488.822662 434.817841,482.963623 
	C434.278473,480.223419 432.214355,477.794678 431.604584,475.054901 
	C429.100952,463.806091 426.725739,452.522705 424.618286,441.193390 
	C422.447571,429.523956 422.210846,417.208618 418.177002,406.263428 
	C415.007690,397.664001 416.712708,388.626923 412.889435,380.384674 
	C411.229218,376.805511 410.731018,372.201202 411.190857,368.234772 
	C411.944763,361.732086 409.579529,355.806244 408.717590,349.671722 
	C408.098083,345.262604 408.164612,341.180939 408.281525,336.817413 
	C408.431580,331.219482 406.233856,325.601349 405.694366,319.930389 
	C405.135162,314.052307 405.347260,308.100708 405.235413,302.181000 
	C405.232697,302.038574 405.469666,301.886292 405.458221,301.750031 
	C404.878876,294.856171 404.282928,287.963654 403.693726,281.070587 
	C403.584991,279.798645 403.335449,278.512634 403.430695,277.254272 
	C403.698486,273.715210 406.271759,269.945953 402.230194,266.889984 
	C402.043610,266.748901 402.070892,266.253387 402.086334,265.927124 
	C402.364380,260.058685 402.954346,254.184921 402.836609,248.325165 
	C402.761932,244.605392 401.639160,240.906677 400.983826,236.809280 
	C409.779144,236.340363 418.577057,236.195877 427.375000,236.192551 
	C459.938568,236.180267 492.502106,236.214584 525.526794,236.714111 
	C526.505493,240.832260 527.256470,244.455231 527.451172,248.107849 
	C527.564148,250.226486 525.700562,253.431396 526.590332,254.358459 
	C530.506348,258.438385 529.117920,262.383759 527.056274,266.682404 
	C532.872742,270.893097 531.061890,275.158478 526.681091,279.093597 
	C530.975281,282.822388 531.877747,286.480133 528.860535,290.900848 
	C528.302856,291.717957 529.209900,293.476349 529.305176,294.809998 
	C529.488647,297.377869 529.661011,299.952301 529.670654,302.524689 
	C529.676758,304.149384 528.646301,306.272736 529.350586,307.310974 
	C531.862183,311.013397 531.408264,314.421295 529.145752,318.191772 
	C535.023865,320.477814 533.001526,324.910492 532.343262,329.049072 
	C532.140747,330.322632 532.312866,331.658936 532.343567,332.965790 
	C532.413391,335.936798 532.499268,338.907410 532.584473,341.878021 
	C532.610901,342.799988 532.307800,344.289062 532.745178,344.557373 
	C538.585510,348.140015 535.915283,352.684784 534.460022,356.769135 
	C535.379761,358.954803 537.176941,361.085663 536.821411,362.759308 
	C535.440918,369.258362 540.140625,374.582886 539.692688,380.956787 
	C539.474365,384.064789 541.644165,387.319214 542.605896,390.545288 
	C542.874695,391.446991 542.603027,392.495178 542.730164,393.456238 
	C543.432312,398.767761 543.891846,404.133972 544.992798,409.363953 
	C546.170715,414.959900 548.193420,420.375519 549.431641,425.962036 
	C550.643066,431.427734 551.289734,437.016815 552.265137,442.537445 
	C552.751038,445.287201 553.395020,448.010132 554.007263,450.736267 
	C555.230896,456.184570 556.087036,461.757751 557.837280,467.033051 
	C559.448486,471.889221 563.417480,475.944397 562.473755,481.678925 
	C562.299072,482.740631 562.868225,483.949707 563.188293,485.063690 
	C565.128967,491.818207 567.074219,498.571564 569.064636,505.311523 
	C570.214355,509.204681 570.427917,513.975952 572.877380,516.749512 
	C577.070740,521.497620 576.368042,527.506348 578.829163,532.588989 
	C580.979858,537.030701 582.219299,541.905884 584.007690,546.533081 
	C585.615417,550.692627 588.068359,554.639465 588.969849,558.927856 
	C589.994690,563.802612 589.711365,568.952454 589.854126,574.287720 
	C580.485901,583.735535 571.260315,592.878357 561.720520,602.138428 
	C554.707520,608.922607 547.888611,615.474121 541.340881,622.286316 
	C533.596741,630.343201 534.460449,641.320312 542.997986,646.354492 
	C550.024231,650.497498 558.584778,648.203552 564.582581,640.471924 
	C566.455017,638.811523 568.059326,637.360229 569.598328,635.842773 
	C582.390137,623.230591 595.169861,610.606140 608.320679,597.996582 
	C612.402832,600.116516 615.356873,602.513794 614.402771,607.602539 
	C614.132996,609.041565 614.949646,611.517090 616.079651,612.229065 
	C619.420227,614.333679 619.220093,617.517151 620.212524,620.674316 
	C622.244202,627.137390 625.473511,633.224915 628.244812,639.451416 
	C628.346741,639.680420 628.943787,639.663330 629.097046,639.899292 
	C630.424805,641.943848 632.641174,643.957214 632.785217,646.101318 
	C633.022461,649.632324 633.847778,652.135925 637.105835,653.762939 
	C638.732178,654.575073 640.146667,655.811462 641.283752,656.597839 
	C638.602417,662.165405 638.602417,662.165405 642.674866,664.438904 
	C646.374817,666.504517 647.985535,671.254761 646.450256,675.573059 
	C647.152161,674.872009 647.854065,674.170959 648.555969,673.469971 
	C650.749817,676.671021 652.943665,679.872070 655.170898,683.121948 
	C653.874939,684.827454 653.039001,685.927551 651.665466,687.735107 
	C658.418579,689.099854 661.346130,692.895020 661.490601,699.331848 
	C661.529175,701.046021 664.246460,702.725464 665.784546,704.373596 
	C667.334900,706.034851 669.566650,707.368408 670.414490,709.317688 
	C672.669250,714.501465 674.198547,719.996887 676.332397,725.239746 
	C676.930542,726.709229 678.551941,728.696594 679.827698,728.791992 
	C684.957458,729.175598 685.625000,733.166138 686.903503,736.657288 
	C687.572693,738.484680 687.759216,740.488770 688.198547,742.578613 
	C692.674011,741.592651 694.064087,744.555420 695.753967,747.519592 
	C697.870300,751.231934 700.428772,754.690430 702.747314,758.290161 
	C703.516785,759.484741 705.004761,761.110840 704.675598,761.968262 
	C702.987854,766.365417 705.949646,767.028931 708.878418,768.130188 
	C713.007385,769.682861 715.708923,772.584045 714.679321,777.219543 
	C714.033691,780.126221 715.329407,780.310669 717.455872,781.176147 
	C721.733765,782.917114 726.884644,784.371948 725.165100,791.087891 
	C724.983521,791.797180 726.084534,793.101929 726.896179,793.743774 
	C728.688843,795.161316 731.001465,796.034851 732.505066,797.676880 
	C734.531555,799.890137 735.504578,803.280518 737.804443,804.986694 
	C742.592224,808.538696 745.744568,812.810364 746.555481,818.734314 
	C751.827209,818.961487 755.783081,821.222351 756.740356,826.204651 
	C757.613953,830.751465 759.719055,833.001099 764.088684,834.313782 
	C767.213257,835.252502 770.977417,836.687012 769.364441,841.722717 
	C769.059265,842.675476 770.161011,844.592407 771.156738,845.359253 
	C775.463562,848.676453 780.236755,851.424683 784.338867,854.961426 
	C789.220032,859.169800 793.607971,863.953430 798.168213,868.529053 
	C800.012085,870.379089 801.742737,872.341858 803.532227,874.246521 
	C805.038879,875.850159 806.615723,877.392334 808.055176,879.053833 
	C810.495544,881.870667 816.524414,882.250916 814.276672,887.653076 
	C818.414429,890.983521 823.694580,893.320557 825.697449,897.304993 
	C828.526428,902.932861 833.728455,904.648071 838.100098,907.110840 
	C841.492493,909.021973 844.163025,910.623169 845.613159,914.182495 
	C846.700684,916.851562 848.102173,918.735168 851.461670,919.494385 
	C855.512329,920.409912 859.831055,921.815613 860.807007,927.197144 
	C861.023010,928.388367 863.056519,929.573669 864.497864,930.163391 
	C870.982178,932.816528 875.893066,936.904968 877.994263,943.831360 
	C867.354065,943.885315 856.713806,943.983337 846.073608,943.985840 
	C792.356018,943.998474 738.638428,943.986267 684.457153,943.907043 
z"/>
<path fill="#62666D" opacity="1.000000" stroke="none" 
	d="
M1418.876221,565.549072 
	C1411.556763,565.344238 1404.306152,564.044006 1397.077515,564.156494 
	C1386.495239,564.321228 1376.472412,561.732666 1366.288696,559.675171 
	C1362.096558,558.828125 1357.717041,558.900879 1353.531738,558.030884 
	C1343.478394,555.941223 1333.489502,553.541931 1323.475098,551.265381 
	C1323.150513,551.191589 1322.814209,551.132629 1322.512329,551.000610 
	C1315.655273,548.001709 1308.827637,544.933411 1301.933228,542.023193 
	C1299.817261,541.130005 1297.535034,540.610596 1295.302002,540.021851 
	C1293.548218,539.559509 1291.580811,539.601807 1290.004395,538.821838 
	C1279.992554,533.868591 1270.096802,528.680725 1260.094116,523.708557 
	C1253.459106,520.410339 1248.395630,514.730347 1240.881470,512.483215 
	C1236.540039,511.184814 1233.144897,506.764587 1229.287476,503.796600 
	C1222.184326,498.331268 1214.973755,493.001984 1207.968872,487.414246 
	C1204.288574,484.478546 1200.908936,481.158539 1197.464478,477.936310 
	C1191.486206,472.343719 1185.503784,466.752991 1179.646729,461.034851 
	C1177.402100,458.843475 1175.375488,456.398102 1173.456665,453.908844 
	C1163.552856,441.061127 1153.203003,428.513947 1144.036011,415.156830 
	C1137.900146,406.216309 1133.570068,396.048126 1128.251465,386.530151 
	C1125.348389,381.335022 1122.015137,376.381744 1119.005127,371.243744 
	C1118.378418,370.173920 1118.307861,368.773956 1118.003418,367.520691 
	C1117.616455,365.928467 1117.402588,364.276398 1116.849609,362.745728 
	C1115.310181,358.485626 1114.416138,353.694580 1111.815674,350.190430 
	C1108.500244,345.722870 1108.057495,340.906158 1106.898438,335.903259 
	C1105.539062,330.035950 1102.450195,324.590454 1100.665771,318.791504 
	C1099.786255,315.932983 1100.619141,312.569489 1099.858154,309.647919 
	C1098.355957,303.881714 1096.262085,298.270752 1094.479980,292.574585 
	C1094.306641,292.020264 1094.509888,291.290649 1094.700562,290.694244 
	C1094.952393,289.906555 1095.752319,289.110779 1095.646973,288.420776 
	C1094.652100,281.905457 1093.484375,275.416779 1092.438477,268.908844 
	C1092.154663,267.141998 1091.933594,265.327881 1092.013550,263.550293 
	C1092.092529,261.792511 1093.434692,259.575348 1092.761963,258.385254 
	C1088.937134,251.618515 1093.768555,243.840973 1089.976562,236.803711 
	C1091.630371,236.331100 1093.288696,236.173477 1094.947021,236.173538 
	C1196.410767,236.176956 1297.874634,236.192169 1399.338379,236.209763 
	C1412.679077,236.212082 1418.944702,242.436996 1418.945435,255.696259 
	C1418.951050,358.825958 1418.952271,461.955688 1418.876221,565.549072 
z"/>
<path fill="#555960" opacity="1.000000" stroke="none" 
	d="
M921.535034,236.327133 
	C923.673706,258.932922 924.882141,281.495331 927.205750,303.942291 
	C928.623596,317.639435 931.333313,331.250519 934.243408,344.731781 
	C936.987854,357.445587 940.264771,370.094757 944.210815,382.484650 
	C948.092896,394.673798 952.801880,406.629150 957.704956,418.456177 
	C964.183167,434.082611 970.733032,449.714050 978.151794,464.903931 
	C983.335083,475.516602 989.926758,485.453217 996.071899,495.581024 
	C1002.267761,505.792267 1008.636292,515.900269 1015.048706,525.977539 
	C1016.640747,528.479370 1018.942627,530.538330 1020.465332,533.072998 
	C1021.943787,535.534058 1022.840393,538.344666 1023.578430,541.446960 
	C1021.777344,541.879944 1020.390442,541.867737 1018.953857,541.566406 
	C1018.270752,541.545166 1017.637207,541.813049 1016.632019,542.166870 
	C997.372192,546.614868 984.454468,557.466858 979.759155,576.699951 
	C975.722717,593.234070 980.015930,607.535461 991.623413,620.112915 
	C1003.412781,632.887451 1023.510681,637.399292 1038.685303,631.513733 
	C1056.136963,624.745056 1066.967163,611.830872 1070.098145,593.007629 
	C1075.361572,591.784912 1076.740967,597.268494 1080.621338,599.325562 
	C1075.906494,610.810669 1070.901733,621.904358 1065.521606,633.830078 
	C1072.290039,633.830078 1078.091675,633.453125 1083.820068,633.939514 
	C1089.191895,634.395630 1092.872192,633.117798 1094.131836,627.493835 
	C1094.973877,623.734680 1097.296387,622.409241 1101.009277,623.047852 
	C1102.306396,623.270935 1103.659180,623.171265 1104.986450,623.218994 
	C1105.328247,623.754211 1105.552002,624.595459 1106.029053,624.779419 
	C1115.887085,628.578491 1123.134888,636.213135 1131.584106,642.074341 
	C1134.701416,644.236633 1137.797852,646.436829 1141.002441,648.463806 
	C1146.837036,652.154358 1152.754272,655.714111 1158.618652,659.357727 
	C1161.122192,660.913086 1163.528198,662.629883 1166.068481,664.119934 
	C1172.825439,668.083252 1179.564331,672.086060 1186.438232,675.838745 
	C1192.318115,679.048767 1198.352295,681.980225 1204.360352,684.950012 
	C1210.371460,687.921448 1216.423462,690.811401 1222.481201,693.687378 
	C1224.576416,694.682129 1226.716797,695.594238 1228.880493,696.430237 
	C1238.853638,700.283813 1248.808594,704.189575 1258.845215,707.871521 
	C1262.080322,709.058228 1265.576416,709.512146 1268.899902,710.483215 
	C1280.564941,713.891846 1292.135864,717.650696 1303.886108,720.728882 
	C1310.239380,722.393250 1316.907593,722.819519 1323.390015,724.037354 
	C1329.691040,725.221008 1335.881592,727.117432 1342.219238,727.949341 
	C1350.402100,729.023376 1358.690552,729.270935 1366.916626,730.053101 
	C1369.130249,730.263550 1371.292480,731.085510 1373.458618,731.696594 
	C1374.722778,732.053284 1375.930298,732.862549 1377.193115,732.932495 
	C1390.754639,733.684265 1404.322021,734.329285 1418.343018,735.004761 
	C1418.848389,767.695923 1418.898560,800.385864 1418.462891,833.525879 
	C1415.191650,833.650696 1412.406738,833.055420 1409.620605,833.049194 
	C1400.276245,833.028320 1390.927368,833.437927 1381.588379,833.258545 
	C1373.798218,833.108887 1366.017456,832.394592 1358.236816,831.867065 
	C1354.875732,831.639160 1351.518799,831.305908 1348.174438,830.901672 
	C1347.241821,830.789062 1346.385620,830.085388 1345.450562,829.944336 
	C1343.414062,829.637085 1341.352783,829.456482 1339.295044,829.341003 
	C1337.728271,829.253174 1334.831543,829.600830 1334.777100,829.319397 
	C1333.975952,825.177063 1330.703003,826.257080 1328.113403,825.831848 
	C1325.359863,825.379639 1322.634399,824.758545 1319.885620,824.274597 
	C1313.619385,823.171448 1307.358887,821.298157 1301.073364,821.200623 
	C1289.100586,821.014709 1277.803467,819.027100 1267.173340,813.297852 
	C1264.183960,811.686646 1260.724365,810.720520 1257.361938,810.080505 
	C1251.863281,809.033691 1245.982544,809.312256 1240.798584,807.500061 
	C1236.223999,805.900879 1232.116821,803.229492 1226.955444,803.692871 
	C1226.328125,803.749084 1225.680420,802.259949 1224.866455,801.794739 
	C1221.944092,800.124878 1219.096191,798.117249 1215.941284,797.111206 
	C1211.385132,795.658325 1206.378540,795.510864 1201.942017,793.816711 
	C1196.217896,791.630981 1191.986694,786.552612 1185.420654,785.485840 
	C1181.127930,784.788391 1177.044556,782.637573 1172.950195,780.938354 
	C1170.068848,779.742493 1167.300659,778.260925 1164.528564,776.817627 
	C1160.854370,774.904602 1157.316650,772.704041 1153.553711,770.993530 
	C1149.072876,768.956665 1144.303467,768.649658 1140.615356,763.816345 
	C1137.410278,759.616272 1131.091675,757.684814 1125.974854,755.094666 
	C1123.266724,753.723755 1119.153809,753.951843 1117.475830,751.949219 
	C1112.995117,746.601440 1106.488770,745.517395 1100.961182,742.439331 
	C1099.531982,741.643494 1098.367676,740.384644 1096.973877,739.510010 
	C1090.738159,735.596619 1084.439575,731.783020 1078.226562,727.834534 
	C1077.182617,727.171143 1076.197021,726.156067 1075.614868,725.072266 
	C1073.487915,721.112488 1070.912720,718.116394 1065.902100,717.832092 
	C1064.407715,717.747253 1062.263672,716.349365 1061.684814,715.006531 
	C1058.461548,707.530884 1050.103760,706.891785 1044.999634,702.008179 
	C1043.233643,700.318420 1040.755615,699.066772 1039.665649,697.042664 
	C1037.654541,693.308105 1035.356079,690.590149 1030.944214,689.758606 
	C1027.822510,689.170166 1024.868164,688.080566 1024.813599,683.778076 
	C1024.797974,682.549805 1023.123413,680.512024 1021.926758,680.275391 
	C1017.117126,679.324341 1014.636658,676.055237 1011.788635,672.484375 
	C1007.959473,667.683411 1003.223877,663.589600 998.753906,659.321594 
	C996.160461,656.845215 993.291260,654.660278 990.609802,652.272705 
	C988.695618,650.568237 986.778687,648.843811 985.056946,646.951721 
	C982.401611,644.033630 980.032898,640.848511 977.301147,638.008911 
	C975.965393,636.620483 972.713806,635.787415 972.687622,634.648865 
	C972.571838,629.607056 968.386230,627.916138 966.038086,624.655090 
	C967.465942,622.404114 969.604858,620.460571 969.676392,618.443604 
	C970.030640,608.462585 969.750427,598.460876 969.889526,588.469177 
	C969.934937,585.207153 968.739563,584.061523 965.505310,584.121704 
	C957.180054,584.276489 948.846008,584.048340 940.526367,584.313904 
	C939.093384,584.359558 937.713989,586.080078 936.309875,587.026978 
	C937.725342,587.719421 939.126953,588.975586 940.558533,589.010742 
	C948.500549,589.205933 956.449951,589.104370 964.963074,589.104370 
	C964.963074,595.805420 964.233337,602.028381 965.132019,608.006592 
	C966.524353,617.268799 962.449341,621.680115 954.382385,625.196045 
	C941.207886,630.937866 928.892944,630.117676 916.985840,622.659607 
	C902.054382,613.307312 896.438599,599.356018 897.959351,582.158569 
	C899.793640,561.415222 921.747009,544.536316 942.289124,547.316223 
	C951.818176,548.605713 959.564575,552.755127 966.894348,558.384644 
	C967.248474,558.656677 967.794739,558.678711 968.465210,558.881897 
	C969.255981,557.879944 970.039429,556.887390 970.799988,555.923706 
	C953.756714,538.897278 928.023987,538.273132 909.801025,550.800354 
	C907.874390,544.282410 905.630005,538.366577 900.920776,533.538940 
	C899.856873,532.448303 900.312927,529.992798 899.733337,528.279114 
	C899.131653,526.500183 898.171631,524.832703 897.278320,523.164673 
	C896.235291,521.217346 895.059692,519.341125 894.009949,517.397156 
	C893.401306,516.269897 893.034485,515.005249 892.374756,513.913635 
	C888.123718,506.879761 883.820190,499.877686 879.542786,492.859772 
	C879.373535,492.582092 879.101868,492.153198 879.200562,491.957184 
	C881.287781,487.810272 877.663818,485.775055 876.064575,482.903564 
	C874.975769,480.948700 874.790955,478.512634 873.949646,476.391815 
	C872.955383,473.885437 872.322632,470.378937 870.403748,469.282379 
	C866.892517,467.275787 867.013916,465.425415 869.050293,462.502441 
	C864.441284,458.684357 863.135193,453.981415 861.893921,448.164429 
	C860.372009,441.032318 861.070618,431.627167 852.109009,427.995575 
	C852.860168,425.835571 854.286804,423.494598 853.772095,422.932953 
	C849.852966,418.656830 849.616394,413.737030 848.995056,408.288727 
	C848.662842,405.375641 846.735779,402.410889 846.600159,398.607574 
	C846.407898,393.213013 841.825562,388.847412 842.208252,382.465973 
	C842.453491,378.377075 838.536865,374.048462 836.536865,369.803284 
	C836.271667,369.240448 836.286499,368.538422 836.207275,367.896484 
	C835.821167,364.766663 835.446960,361.635406 835.068970,358.504578 
	C834.854980,356.732361 834.685120,354.953522 834.417786,353.189392 
	C834.039246,350.691132 833.634277,348.194763 833.146057,345.716217 
	C832.962708,344.785217 832.143311,343.862061 832.244690,343.010406 
	C833.327759,333.911285 832.057373,325.393402 826.358459,317.735565 
	C834.946411,311.995361 825.410889,309.021820 824.127563,304.638367 
	C825.426575,303.497375 826.632080,302.438477 828.009644,301.228485 
	C826.918579,298.860077 825.897034,296.621674 824.855896,294.392456 
	C824.391357,293.397705 823.426270,292.397064 823.476318,291.440338 
	C823.812134,285.025299 824.373535,278.622223 824.810486,272.211823 
	C824.840271,271.775604 824.553772,271.221802 824.244507,270.873779 
	C821.969910,268.315277 822.830383,265.836426 823.302673,262.701294 
	C824.188843,256.819031 823.518799,250.679092 823.253784,244.656998 
	C823.132385,241.897812 822.437195,239.163879 822.002197,236.418488 
	C840.585693,236.341705 859.169189,236.236359 877.752747,236.197342 
	C892.193420,236.167007 906.634277,236.219421 921.535034,236.327133 
M921.871460,572.399841 
	C931.480835,563.248596 939.793274,563.146912 956.066589,572.282776 
	C958.835815,569.067200 961.682495,565.761658 964.459473,562.537109 
	C963.858948,561.610901 963.657959,561.134155 963.317322,560.799744 
	C952.257385,549.940674 935.036804,547.627075 919.836304,555.915588 
	C907.980042,562.380554 900.942444,574.593506 901.664368,591.455322 
	C902.549011,612.117432 927.805603,632.807373 951.829163,622.042419 
	C955.142517,620.557678 960.032288,618.132935 960.463196,615.526733 
	C961.655823,608.314270 960.876221,600.775696 960.876221,593.366638 
	C952.307129,593.366638 944.554199,593.366638 936.866394,593.366638 
	C934.654175,605.421936 935.103210,606.078979 945.927612,607.137329 
	C946.142456,607.158386 946.320312,607.556885 947.532654,608.939270 
	C943.195496,609.576050 939.553528,610.974670 936.206299,610.459167 
	C917.175476,607.528259 909.806396,588.576904 921.871460,572.399841 
z"/>
<path fill="#52575E" opacity="1.000000" stroke="none" 
	d="
M821.542236,236.323792 
	C822.437195,239.163879 823.132385,241.897812 823.253784,244.656998 
	C823.518799,250.679092 824.188843,256.819031 823.302673,262.701294 
	C822.830383,265.836426 821.969910,268.315277 824.244507,270.873779 
	C824.553772,271.221802 824.840271,271.775604 824.810486,272.211823 
	C824.373535,278.622223 823.812134,285.025299 823.476318,291.440338 
	C823.426270,292.397064 824.391357,293.397705 824.855896,294.392456 
	C825.897034,296.621674 826.918579,298.860077 828.009644,301.228485 
	C826.632080,302.438477 825.426575,303.497375 824.127563,304.638367 
	C825.410889,309.021820 834.946411,311.995361 826.358459,317.735565 
	C832.057373,325.393402 833.327759,333.911285 832.244690,343.010406 
	C832.143311,343.862061 832.962708,344.785217 833.146057,345.716217 
	C833.634277,348.194763 834.039246,350.691132 834.417786,353.189392 
	C834.685120,354.953522 834.854980,356.732361 835.068970,358.504578 
	C835.446960,361.635406 835.821167,364.766663 836.207275,367.896484 
	C836.286499,368.538422 836.271667,369.240448 836.536865,369.803284 
	C838.536865,374.048462 842.453491,378.377075 842.208252,382.465973 
	C841.825562,388.847412 846.407898,393.213013 846.600159,398.607574 
	C846.735779,402.410889 848.662842,405.375641 848.995056,408.288727 
	C849.616394,413.737030 849.852966,418.656830 853.772095,422.932953 
	C854.286804,423.494598 852.860168,425.835571 852.109009,427.995575 
	C861.070618,431.627167 860.372009,441.032318 861.893921,448.164429 
	C863.135193,453.981415 864.441284,458.684357 869.050293,462.502441 
	C867.013916,465.425415 866.892517,467.275787 870.403748,469.282379 
	C872.322632,470.378937 872.955383,473.885437 873.949646,476.391815 
	C874.790955,478.512634 874.975769,480.948700 876.064575,482.903564 
	C877.663818,485.775055 881.287781,487.810272 879.200562,491.957184 
	C879.101868,492.153198 879.373535,492.582092 879.542786,492.859772 
	C883.820190,499.877686 888.123718,506.879761 892.374756,513.913635 
	C893.034485,515.005249 893.401306,516.269897 894.009949,517.397156 
	C895.059692,519.341125 896.235291,521.217346 897.278320,523.164673 
	C898.171631,524.832703 899.131653,526.500183 899.733337,528.279114 
	C900.312927,529.992798 899.856873,532.448303 900.920776,533.538940 
	C905.630005,538.366577 907.874390,544.282410 909.625916,551.091064 
	C900.588135,558.117859 895.120300,567.684570 893.415466,578.023621 
	C890.426147,596.151428 895.493408,612.495728 910.826477,624.073486 
	C922.622192,632.980164 935.738647,637.292419 950.436462,631.908569 
	C955.702026,629.979675 960.684387,627.277771 965.796021,624.928711 
	C968.386230,627.916138 972.571838,629.607056 972.687622,634.648865 
	C972.713806,635.787415 975.965393,636.620483 977.301147,638.008911 
	C980.032898,640.848511 982.401611,644.033630 985.056946,646.951721 
	C986.778687,648.843811 988.695618,650.568237 990.609802,652.272705 
	C993.291260,654.660278 996.160461,656.845215 998.753906,659.321594 
	C1003.223877,663.589600 1007.959473,667.683411 1011.788635,672.484375 
	C1014.636658,676.055237 1017.117126,679.324341 1021.926758,680.275391 
	C1023.123413,680.512024 1024.797974,682.549805 1024.813599,683.778076 
	C1024.868164,688.080566 1027.822510,689.170166 1030.944214,689.758606 
	C1035.356079,690.590149 1037.654541,693.308105 1039.665649,697.042664 
	C1040.755615,699.066772 1043.233643,700.318420 1044.999634,702.008179 
	C1050.103760,706.891785 1058.461548,707.530884 1061.684814,715.006531 
	C1062.263672,716.349365 1064.407715,717.747253 1065.902100,717.832092 
	C1070.912720,718.116394 1073.487915,721.112488 1075.614868,725.072266 
	C1076.197021,726.156067 1077.182617,727.171143 1078.226562,727.834534 
	C1084.439575,731.783020 1090.738159,735.596619 1096.973877,739.510010 
	C1098.367676,740.384644 1099.531982,741.643494 1100.961182,742.439331 
	C1106.488770,745.517395 1112.995117,746.601440 1117.475830,751.949219 
	C1119.153809,753.951843 1123.266724,753.723755 1125.974854,755.094666 
	C1131.091675,757.684814 1137.410278,759.616272 1140.615356,763.816345 
	C1144.303467,768.649658 1149.072876,768.956665 1153.553711,770.993530 
	C1157.316650,772.704041 1160.854370,774.904602 1164.528564,776.817627 
	C1167.300659,778.260925 1170.068848,779.742493 1172.950195,780.938354 
	C1177.044556,782.637573 1181.127930,784.788391 1185.420654,785.485840 
	C1191.986694,786.552612 1196.217896,791.630981 1201.942017,793.816711 
	C1206.378540,795.510864 1211.385132,795.658325 1215.941284,797.111206 
	C1219.096191,798.117249 1221.944092,800.124878 1224.866455,801.794739 
	C1225.680420,802.259949 1226.328125,803.749084 1226.955444,803.692871 
	C1232.116821,803.229492 1236.223999,805.900879 1240.798584,807.500061 
	C1245.982544,809.312256 1251.863281,809.033691 1257.361938,810.080505 
	C1260.724365,810.720520 1264.183960,811.686646 1267.173340,813.297852 
	C1277.803467,819.027100 1289.100586,821.014709 1301.073364,821.200623 
	C1307.358887,821.298157 1313.619385,823.171448 1319.885620,824.274597 
	C1322.634399,824.758545 1325.359863,825.379639 1328.113403,825.831848 
	C1330.703003,826.257080 1333.975952,825.177063 1334.777100,829.319397 
	C1334.831543,829.600830 1337.728271,829.253174 1339.295044,829.341003 
	C1341.352783,829.456482 1343.414062,829.637085 1345.450562,829.944336 
	C1346.385620,830.085388 1347.241821,830.789062 1348.174438,830.901672 
	C1351.518799,831.305908 1354.875732,831.639160 1358.236816,831.867065 
	C1366.017456,832.394592 1373.798218,833.108887 1381.588379,833.258545 
	C1390.927368,833.437927 1400.276245,833.028320 1409.620605,833.049194 
	C1412.406738,833.055420 1415.191650,833.650696 1418.386719,833.989136 
	C1418.847534,855.360840 1418.898682,876.719543 1418.873291,898.541626 
	C1402.823975,898.669800 1386.840576,898.583191 1370.883179,897.891907 
	C1363.155273,897.557129 1355.484131,896.020447 1347.773560,895.149048 
	C1337.920776,894.035583 1327.998169,893.405823 1318.209717,891.894348 
	C1309.271484,890.514160 1300.488647,888.150635 1291.602905,886.395447 
	C1287.892212,885.662415 1284.038330,885.633972 1280.343262,884.845947 
	C1270.678223,882.784668 1260.972168,880.816650 1251.454956,878.187439 
	C1240.155273,875.066101 1228.975342,871.473206 1217.855103,867.751160 
	C1206.922852,864.091919 1196.121460,860.039307 1185.279419,856.113464 
	C1176.424316,852.907104 1167.476196,849.915955 1158.787842,846.303772 
	C1151.173096,843.137939 1143.832153,839.301819 1136.423950,835.653015 
	C1126.376709,830.704346 1116.291382,825.821045 1106.393433,820.586121 
	C1099.554932,816.969421 1093.001831,812.812378 1086.328979,808.883667 
	C1082.069458,806.375793 1077.766968,803.934998 1073.583618,801.305176 
	C1062.301392,794.212952 1050.802368,787.421143 1039.901245,779.780090 
	C1029.667847,772.606995 1019.961121,764.657410 1010.255920,756.762634 
	C999.640503,748.127563 989.173340,739.300354 978.861816,730.304504 
	C968.590393,721.343567 958.288818,712.378052 948.576599,702.828613 
	C941.671448,696.039185 935.787292,688.219543 929.325562,680.968323 
	C924.091797,675.095032 918.447937,669.574890 913.401245,663.550232 
	C907.502625,656.508423 902.104858,649.049377 896.394897,641.846497 
	C891.916992,636.197815 887.294739,630.663574 882.345703,624.573608 
	C881.947083,599.928467 881.940308,575.788269 881.930054,551.648010 
	C881.929016,549.150940 882.078918,546.634155 881.794678,544.168457 
	C881.704956,543.389954 880.327393,542.098328 879.716370,542.192322 
	C878.730286,542.344177 877.464478,543.279175 877.097473,544.195862 
	C876.636047,545.348572 876.948181,546.815979 876.948120,548.147583 
	C876.947021,573.120361 876.949158,598.093079 876.950562,623.065857 
	C876.950623,624.842468 876.950562,626.619080 876.950562,628.848938 
	C872.544373,628.848938 868.761780,628.848938 864.878357,628.670044 
	C864.602844,628.269897 864.382996,628.111389 864.072510,627.547852 
	C864.016113,601.927856 864.004822,576.775574 863.995605,551.623230 
	C863.995239,550.790527 863.744507,549.811584 864.094666,549.161743 
	C864.541992,548.331543 865.482239,547.766968 866.210083,547.087891 
	C866.791687,547.749023 867.709595,548.334290 867.879700,549.088196 
	C868.166260,550.358582 867.988342,551.736084 867.988525,553.068481 
	C867.992249,575.222656 867.951233,597.377075 868.068481,619.530640 
	C868.078674,621.454163 866.463318,624.783325 870.395203,624.918091 
	C874.400085,625.055237 872.954590,621.700378 872.962219,619.748291 
	C873.056702,595.595581 873.030823,571.442444 873.014404,547.289368 
	C873.013306,545.685120 872.837769,544.080933 872.735229,542.337646 
	C868.047485,542.337646 863.817505,542.337646 858.886475,542.337646 
	C858.886475,556.783569 858.886475,570.894653 858.886475,585.005676 
	C855.224182,580.258118 850.916687,575.871582 848.020325,570.695496 
	C839.272339,555.061829 830.496765,539.394714 822.822571,523.223083 
	C815.329834,507.433746 809.031433,491.066956 802.495605,474.838135 
	C798.503235,464.924988 794.674561,454.913208 791.454651,444.730042 
	C787.563782,432.425079 784.322510,419.911591 780.934814,407.451691 
	C777.950195,396.474091 774.925598,385.498535 772.346436,374.422455 
	C770.524841,366.599762 769.466675,358.601410 767.976013,350.698730 
	C766.819763,344.568695 765.376526,338.489746 764.345581,332.340363 
	C763.800659,329.090363 763.982544,325.725708 763.628601,322.435120 
	C762.820251,314.920380 761.897705,307.417755 760.995300,299.913330 
	C760.199890,293.297791 759.081909,286.705872 758.635620,280.067932 
	C758.200012,273.587555 758.455994,267.061890 758.369019,260.556580 
	C758.265381,252.804901 758.119873,245.053772 757.989014,236.862015 
	C779.017822,236.357452 800.049988,236.293274 821.542236,236.323792 
z"/>
<path fill="#4A4F56" opacity="1.000000" stroke="none" 
	d="
M878.458008,943.906250 
	C875.893066,936.904968 870.982178,932.816528 864.497864,930.163391 
	C863.056519,929.573669 861.023010,928.388367 860.807007,927.197144 
	C859.831055,921.815613 855.512329,920.409912 851.461670,919.494385 
	C848.102173,918.735168 846.700684,916.851562 845.613159,914.182495 
	C844.163025,910.623169 841.492493,909.021973 838.100098,907.110840 
	C833.728455,904.648071 828.526428,902.932861 825.697449,897.304993 
	C823.694580,893.320557 818.414429,890.983521 814.276672,887.653076 
	C816.524414,882.250916 810.495544,881.870667 808.055176,879.053833 
	C806.615723,877.392334 805.038879,875.850159 803.532227,874.246521 
	C801.742737,872.341858 800.012085,870.379089 798.168213,868.529053 
	C793.607971,863.953430 789.220032,859.169800 784.338867,854.961426 
	C780.236755,851.424683 775.463562,848.676453 771.156738,845.359253 
	C770.161011,844.592407 769.059265,842.675476 769.364441,841.722717 
	C770.977417,836.687012 767.213257,835.252502 764.088684,834.313782 
	C759.719055,833.001099 757.613953,830.751465 756.740356,826.204651 
	C755.783081,821.222351 751.827209,818.961487 746.555481,818.734314 
	C745.744568,812.810364 742.592224,808.538696 737.804443,804.986694 
	C735.504578,803.280518 734.531555,799.890137 732.505066,797.676880 
	C731.001465,796.034851 728.688843,795.161316 726.896179,793.743774 
	C726.084534,793.101929 724.983521,791.797180 725.165100,791.087891 
	C726.884644,784.371948 721.733765,782.917114 717.455872,781.176147 
	C715.329407,780.310669 714.033691,780.126221 714.679321,777.219543 
	C715.708923,772.584045 713.007385,769.682861 708.878418,768.130188 
	C705.949646,767.028931 702.987854,766.365417 704.675598,761.968262 
	C705.004761,761.110840 703.516785,759.484741 702.747314,758.290161 
	C700.428772,754.690430 697.870300,751.231934 695.753967,747.519592 
	C694.064087,744.555420 692.674011,741.592651 688.198547,742.578613 
	C687.759216,740.488770 687.572693,738.484680 686.903503,736.657288 
	C685.625000,733.166138 684.957458,729.175598 679.827698,728.791992 
	C678.551941,728.696594 676.930542,726.709229 676.332397,725.239746 
	C674.198547,719.996887 672.669250,714.501465 670.414490,709.317688 
	C669.566650,707.368408 667.334900,706.034851 665.784546,704.373596 
	C664.246460,702.725464 661.529175,701.046021 661.490601,699.331848 
	C661.346130,692.895020 658.418579,689.099854 651.665466,687.735107 
	C653.039001,685.927551 653.874939,684.827454 655.170898,683.121948 
	C652.943665,679.872070 650.749817,676.671021 648.555969,673.469971 
	C647.854065,674.170959 647.152161,674.872009 646.450256,675.573059 
	C647.985535,671.254761 646.374817,666.504517 642.674866,664.438904 
	C638.602417,662.165405 638.602417,662.165405 641.283752,656.597839 
	C640.146667,655.811462 638.732178,654.575073 637.105835,653.762939 
	C633.847778,652.135925 633.022461,649.632324 632.785217,646.101318 
	C632.641174,643.957214 630.424805,641.943848 629.097046,639.899292 
	C628.943787,639.663330 628.346741,639.680420 628.244812,639.451416 
	C625.473511,633.224915 622.244202,627.137390 620.212524,620.674316 
	C619.220093,617.517151 619.420227,614.333679 616.079651,612.229065 
	C614.949646,611.517090 614.132996,609.041565 614.402771,607.602539 
	C615.356873,602.513794 612.402832,600.116516 608.458496,597.690674 
	C611.812683,594.482849 615.396301,591.592041 619.212036,588.964355 
	C625.919250,595.833069 632.312988,602.521851 638.925842,608.986389 
	C640.611389,610.634155 642.992065,611.570740 645.397583,613.039551 
	C651.372253,614.951355 656.131775,613.564331 660.300842,609.440674 
	C671.368286,598.493652 682.508362,587.619995 693.625244,576.722961 
	C699.923950,570.548828 698.630066,570.102173 704.946472,576.489685 
	C706.582947,578.144531 708.154175,579.925781 710.030701,581.262512 
	C711.641113,582.409668 714.200867,584.138062 715.343384,583.577332 
	C717.033508,582.747742 718.369751,580.259216 718.907898,578.225891 
	C719.874634,574.573242 720.136536,570.734131 721.072998,566.955444 
	C725.202820,565.055298 724.931519,563.417786 721.109192,561.630676 
	C721.335510,559.842651 721.604187,558.418030 721.872925,556.993469 
	C723.541626,558.904663 725.626709,560.590088 726.806335,562.766357 
	C731.685486,571.768372 736.342407,580.892456 740.982727,590.021729 
	C746.278503,600.440613 751.390442,610.953735 756.756348,621.335876 
	C758.313477,624.348755 760.467896,627.052856 762.680908,630.341614 
	C764.012085,631.829468 765.010925,632.874146 766.009705,633.918884 
	C768.984741,639.698792 771.809204,645.563232 774.987244,651.229248 
	C777.141113,655.069397 779.701111,658.694885 782.241577,662.302124 
	C786.010620,667.653870 789.893127,672.926819 793.781067,678.193665 
	C802.814636,690.430908 811.778381,702.721924 820.978760,714.832886 
	C825.179260,720.362122 829.897766,725.495911 834.335083,730.847412 
	C839.953674,737.623535 845.364929,744.579346 851.167725,751.192505 
	C855.818909,756.493225 860.864136,761.454773 865.836792,766.465454 
	C872.576355,773.256470 879.362122,780.003662 886.226685,786.667969 
	C890.957458,791.260803 895.874756,795.660950 900.674255,800.183777 
	C907.183777,806.318054 913.359558,812.849060 920.222168,818.556152 
	C930.296814,826.934448 941.511841,834.032532 951.024536,842.970703 
	C961.328552,852.652222 973.874878,859.002686 984.574158,867.969543 
	C988.572205,871.320190 992.790894,874.435120 997.103699,877.371582 
	C999.380493,878.921875 1002.074280,879.860962 1004.583557,881.067993 
	C1005.772705,881.640015 1007.157898,881.970032 1008.136353,882.789368 
	C1020.694580,893.307068 1035.258545,900.398682 1049.833862,907.511536 
	C1052.632446,908.877258 1054.922852,911.268555 1057.699341,912.698181 
	C1065.851929,916.896301 1074.178467,920.755615 1082.347900,924.922058 
	C1091.059814,929.365112 1099.560059,934.238464 1108.385986,938.433655 
	C1111.353516,939.844238 1115.466919,938.942444 1116.948975,943.483826 
	C1116.000000,943.884216 1115.005127,943.983398 1114.010376,943.983459 
	C1035.647461,943.987671 957.284607,943.984131 878.458008,943.906250 
z"/>
<path fill="#4A4F56" opacity="1.000000" stroke="none" 
	d="
M589.996643,573.982727 
	C589.711365,568.952454 589.994690,563.802612 588.969849,558.927856 
	C588.068359,554.639465 585.615417,550.692627 584.007690,546.533081 
	C582.219299,541.905884 580.979858,537.030701 578.829163,532.588989 
	C576.368042,527.506348 577.070740,521.497620 572.877380,516.749512 
	C570.427917,513.975952 570.214355,509.204681 569.064636,505.311523 
	C567.074219,498.571564 565.128967,491.818207 563.188293,485.063690 
	C562.868225,483.949707 562.299072,482.740631 562.473755,481.678925 
	C563.417480,475.944397 559.448486,471.889221 557.837280,467.033051 
	C556.087036,461.757751 555.230896,456.184570 554.007263,450.736267 
	C553.395020,448.010132 552.751038,445.287201 552.265137,442.537445 
	C551.289734,437.016815 550.643066,431.427734 549.431641,425.962036 
	C548.193420,420.375519 546.170715,414.959900 544.992798,409.363953 
	C543.891846,404.133972 543.432312,398.767761 542.730164,393.456238 
	C542.603027,392.495178 542.874695,391.446991 542.605896,390.545288 
	C541.644165,387.319214 539.474365,384.064789 539.692688,380.956787 
	C540.140625,374.582886 535.440918,369.258362 536.821411,362.759308 
	C537.176941,361.085663 535.379761,358.954803 534.460022,356.769135 
	C535.915283,352.684784 538.585510,348.140015 532.745178,344.557373 
	C532.307800,344.289062 532.610901,342.799988 532.584473,341.878021 
	C532.499268,338.907410 532.413391,335.936798 532.343567,332.965790 
	C532.312866,331.658936 532.140747,330.322632 532.343262,329.049072 
	C533.001526,324.910492 535.023865,320.477814 529.145752,318.191772 
	C531.408264,314.421295 531.862183,311.013397 529.350586,307.310974 
	C528.646301,306.272736 529.676758,304.149384 529.670654,302.524689 
	C529.661011,299.952301 529.488647,297.377869 529.305176,294.809998 
	C529.209900,293.476349 528.302856,291.717957 528.860535,290.900848 
	C531.877747,286.480133 530.975281,282.822388 526.681091,279.093597 
	C531.061890,275.158478 532.872742,270.893097 527.056274,266.682404 
	C529.117920,262.383759 530.506348,258.438385 526.590332,254.358459 
	C525.700562,253.431396 527.564148,250.226486 527.451172,248.107849 
	C527.256470,244.455231 526.505493,240.832260 525.985229,236.808075 
	C535.611694,236.340561 545.240967,236.198944 554.870178,236.194641 
	C586.272339,236.180603 617.674500,236.216690 649.536682,236.326675 
	C650.659790,239.089447 651.924988,241.771729 651.869019,244.426147 
	C651.722351,251.378372 650.999817,258.318481 650.500610,265.262970 
	C650.489258,265.420441 650.311951,265.652161 650.366821,265.715881 
	C655.543945,271.724396 650.335327,279.187225 653.208313,285.685486 
	C654.638916,288.921204 654.584534,292.859985 654.955994,296.505707 
	C655.430115,301.158752 655.638855,305.838440 655.992676,310.504272 
	C656.392822,315.781586 656.908813,321.051819 657.199036,326.334778 
	C657.290649,328.002991 656.818298,329.702209 657.646118,331.288544 
	C657.879211,334.328033 658.149475,337.365356 658.323853,340.408203 
	C658.379761,341.384277 657.724731,342.729462 658.170532,343.304688 
	C663.338867,349.974121 660.450806,358.166687 662.357422,365.530670 
	C664.532898,373.932831 666.056274,382.505432 668.604004,390.888092 
	C670.323669,396.546112 669.973633,402.799866 671.236206,408.638641 
	C672.751709,415.647400 675.000244,422.497437 676.925110,429.417969 
	C678.278687,434.284668 679.579529,439.166504 680.978699,444.019989 
	C683.877502,454.075165 686.676392,464.162872 689.805176,474.146698 
	C692.004578,481.164734 694.648499,488.045013 697.152588,494.965546 
	C700.009521,502.861084 703.009949,510.705719 705.773438,518.633301 
	C706.518250,520.769958 706.629700,523.127319 706.728516,526.034790 
	C697.779907,528.088806 689.133667,529.485229 680.489868,530.896667 
	C676.275085,531.584900 672.007324,532.075378 667.883789,533.126953 
	C666.439026,533.495361 664.603027,535.116516 664.322327,536.454468 
	C664.058350,537.712402 665.293579,539.681030 666.421143,540.760498 
	C669.811707,544.006592 673.471497,546.971313 677.803894,550.718323 
	C668.684143,559.565796 659.792664,568.270813 650.746826,576.812256 
	C650.051270,577.469055 648.267090,576.972900 646.869263,576.700439 
	C640.410645,570.021240 634.305725,563.391724 627.610901,557.423950 
	C625.131897,555.214172 621.266724,554.559326 617.624512,553.123779 
	C612.312683,552.320251 609.099548,555.290527 605.977417,558.300415 
	C600.604492,563.480042 595.318848,568.750427 589.996643,573.982727 
z"/>
<path fill="#D4BC77" opacity="1.000000" stroke="none" 
	d="
M1019.003479,541.855530 
	C1020.390442,541.867737 1021.777344,541.879944 1023.576660,541.828491 
	C1051.691895,541.460022 1072.202881,565.733215 1070.052002,592.544983 
	C1066.967163,611.830872 1056.136963,624.745056 1038.685303,631.513733 
	C1023.510681,637.399292 1003.412781,632.887451 991.623413,620.112915 
	C980.015930,607.535461 975.722717,593.234070 979.759155,576.699951 
	C984.454468,557.466858 997.372192,546.614868 1016.969604,542.184937 
	C1018.120422,542.029846 1018.561951,541.942688 1019.003479,541.855530 
M1051.853271,618.386230 
	C1053.297119,616.783691 1054.791138,615.223267 1056.177002,613.571960 
	C1067.062256,600.601257 1068.312378,580.074402 1059.341431,566.001526 
	C1048.578857,549.118103 1029.969360,543.442871 1013.105286,547.971375 
	C990.798096,553.961487 978.130005,577.076660 984.674561,599.240845 
	C989.512695,615.625977 1001.247498,625.499878 1017.423584,628.636963 
	C1029.709839,631.019653 1041.499756,627.282104 1051.853271,618.386230 
z"/>
<path fill="#E9D78C" opacity="1.000000" stroke="none" 
	d="
M1231.363403,563.405029 
	C1221.237061,563.738037 1211.433838,563.738037 1201.045898,563.738037 
	C1200.926636,565.997620 1200.757080,567.740479 1200.754639,569.483521 
	C1200.730591,586.643250 1200.706543,603.803101 1200.755493,620.962708 
	C1200.764404,624.063660 1200.440796,626.437927 1196.115234,624.914734 
	C1196.115234,603.185730 1196.115234,581.447754 1196.115234,559.084290 
	C1206.317627,559.084290 1216.376343,559.084290 1226.688477,559.084290 
	C1226.688477,554.871338 1226.688477,551.276550 1226.688477,547.295410 
	C1225.412354,547.140747 1224.155762,546.858948 1222.898315,546.855652 
	C1207.404541,546.815125 1191.910889,546.815247 1176.417114,546.804932 
	C1176.083862,546.804749 1175.701538,546.698669 1175.426025,546.825012 
	C1174.246216,547.366150 1173.097900,547.975952 1171.938110,548.560669 
	C1173.092529,549.169495 1174.242432,550.297546 1175.402222,550.307983 
	C1188.562500,550.425842 1201.724121,550.372559 1214.885498,550.365662 
	C1217.352539,550.364380 1219.819458,550.365479 1222.557739,550.365479 
	C1222.557739,552.287170 1222.557739,553.696777 1222.557739,555.483704 
	C1220.947510,555.591003 1219.496582,555.770691 1218.045532,555.771606 
	C1202.551758,555.781250 1187.056763,555.655396 1171.565063,555.828369 
	C1167.767700,555.870728 1165.960449,554.986816 1166.409668,550.862305 
	C1166.710693,548.097717 1166.467041,545.273804 1166.467041,542.184509 
	C1188.412109,542.184509 1209.821167,542.184509 1231.686523,542.184509 
	C1231.686523,549.218994 1231.686523,556.145508 1231.363403,563.405029 
z"/>
<path fill="#E9D78C" opacity="1.000000" stroke="none" 
	d="
M1087.418091,585.900330 
	C1093.209351,572.664734 1099.090332,559.467102 1104.726685,546.165833 
	C1106.077637,542.977600 1108.289307,542.875305 1111.066895,542.934326 
	C1113.654297,542.989197 1115.751709,543.006714 1117.090088,546.013062 
	C1129.598999,574.110474 1142.264526,602.138184 1154.869751,630.192749 
	C1155.266113,631.075012 1155.501221,632.029846 1156.091797,633.783508 
	C1148.235229,633.783508 1140.855469,633.875305 1133.484741,633.659119 
	C1132.630981,633.634033 1131.594360,632.017578 1131.044067,630.934875 
	C1129.388672,627.677673 1127.444580,624.449707 1126.514771,620.969421 
	C1125.208008,616.077698 1122.606934,614.448975 1117.624146,614.751282 
	C1111.156128,615.143799 1104.605103,615.157104 1098.155884,614.587341 
	C1091.975220,614.041260 1087.916748,615.599609 1086.629272,622.132935 
	C1085.903320,625.817017 1083.497437,626.342285 1079.765747,624.949646 
	C1081.734253,620.428833 1083.482056,615.981384 1085.658203,611.754517 
	C1086.138428,610.821777 1088.131714,610.241028 1089.436401,610.226685 
	C1100.762207,610.101685 1112.091919,610.034302 1123.414062,610.264587 
	C1124.922119,610.295227 1126.961060,611.753052 1127.771484,613.128723 
	C1129.787231,616.550293 1131.623535,620.184265 1132.809692,623.959778 
	C1134.168579,628.284302 1136.684204,629.641663 1140.938721,629.065247 
	C1143.169189,628.763123 1145.474365,629.011963 1148.657227,629.011963 
	C1145.893066,622.566650 1143.536133,616.960266 1141.092163,611.392090 
	C1132.342529,591.458191 1123.563599,571.537109 1114.793579,551.612122 
	C1114.525391,551.002563 1114.348633,550.304138 1113.929688,549.819580 
	C1113.018311,548.765198 1112.027466,547.121704 1110.974976,547.047058 
	C1110.070435,546.982971 1108.653442,548.587646 1108.118896,549.754761 
	C1104.248657,558.205505 1100.555786,566.737427 1096.783447,575.233276 
	C1095.096680,579.032227 1093.356812,582.807556 1091.014526,586.784302 
	C1089.398071,586.616760 1088.408081,586.258545 1087.418091,585.900330 
z"/>
<path fill="#E9D78C" opacity="1.000000" stroke="none" 
	d="
M1097.074585,606.815430 
	C1093.829590,606.815125 1091.072021,606.815125 1087.316895,606.815125 
	C1095.244873,588.935852 1102.757568,571.993164 1110.927368,553.568665 
	C1121.913696,578.043945 1132.384888,601.371887 1142.975220,624.965149 
	C1139.686279,626.398376 1137.878906,625.799927 1136.512085,622.647278 
	C1128.777588,604.807373 1120.899414,587.029785 1113.060913,569.234985 
	C1112.597778,568.183594 1112.054810,567.167358 1110.905396,564.821045 
	C1105.502563,577.685730 1100.520752,589.547913 1095.255859,602.083923 
	C1103.065552,602.083923 1109.907715,602.083923 1117.669922,602.083923 
	C1115.425171,596.986267 1113.461914,592.527893 1111.484619,588.037842 
	C1106.792725,590.529297 1110.155762,600.042908 1101.183594,598.599487 
	C1104.331543,590.793884 1107.362915,583.277100 1110.870239,574.580505 
	C1115.865601,585.601624 1120.443848,595.702454 1125.480957,606.815796 
	C1115.645630,606.815796 1106.603882,606.815796 1097.074585,606.815430 
z"/>
<path fill="#E9D78C" opacity="1.000000" stroke="none" 
	d="
M1167.016602,562.854370 
	C1167.830688,561.298157 1168.750977,559.246765 1169.750366,559.207458 
	C1176.875000,558.927490 1184.015747,559.058228 1191.673950,559.058228 
	C1191.673950,582.307373 1191.673950,605.198425 1191.673950,628.481689 
	C1196.220947,628.481689 1200.247070,628.481689 1204.743164,628.481689 
	C1204.743164,608.395386 1204.743164,588.489563 1204.743164,568.505981 
	C1208.091919,567.436646 1209.755737,567.767883 1209.737427,571.516663 
	C1209.642456,590.995605 1209.665161,610.475281 1209.707886,629.954529 
	C1209.713501,632.514099 1209.161865,634.018921 1206.122803,633.939087 
	C1199.988770,633.777954 1193.847656,633.891174 1187.012939,633.891174 
	C1187.012939,610.539246 1187.012939,587.531189 1187.012939,564.392334 
	C1179.936157,563.999634 1173.547852,563.645142 1167.016602,562.854370 
z"/>
<path fill="#D4BC77" opacity="1.000000" stroke="none" 
	d="
M1087.195679,586.129028 
	C1088.408081,586.258545 1089.398071,586.616760 1090.776733,587.034180 
	C1087.800049,595.182190 1084.468506,603.285339 1081.057617,611.354919 
	C1078.692749,616.949890 1076.218628,622.498596 1073.413696,628.939514 
	C1078.522827,628.939514 1082.821167,629.336975 1086.968140,628.718811 
	C1088.373901,628.509277 1090.065430,625.884460 1090.466553,624.102417 
	C1091.560791,619.241516 1094.239746,617.812134 1099.020020,618.149780 
	C1104.808228,618.558655 1110.649414,618.324097 1116.464478,618.207642 
	C1119.616699,618.144592 1121.099487,619.395691 1120.828979,623.098206 
	C1115.827393,623.098206 1110.872070,623.098206 1105.451660,623.158569 
	C1103.659180,623.171265 1102.306396,623.270935 1101.009277,623.047852 
	C1097.296387,622.409241 1094.973877,623.734680 1094.131836,627.493835 
	C1092.872192,633.117798 1089.191895,634.395630 1083.820068,633.939514 
	C1078.091675,633.453125 1072.290039,633.830078 1065.521606,633.830078 
	C1070.901733,621.904358 1075.906494,610.810669 1080.973633,599.363037 
	C1083.015137,594.791931 1084.994141,590.574829 1087.195679,586.129028 
z"/>
<path fill="#E9D78C" opacity="1.000000" stroke="none" 
	d="
M646.988892,577.012695 
	C648.267090,576.972900 650.051270,577.469055 650.746826,576.812256 
	C659.792664,568.270813 668.684143,559.565796 677.803894,550.718323 
	C673.471497,546.971313 669.811707,544.006592 666.421143,540.760498 
	C665.293579,539.681030 664.058350,537.712402 664.322327,536.454468 
	C664.603027,535.116516 666.439026,533.495361 667.883789,533.126953 
	C672.007324,532.075378 676.275085,531.584900 680.489868,530.896667 
	C689.133667,529.485229 697.779907,528.088806 706.749268,526.473938 
	C710.837036,525.821106 714.604553,525.411133 718.363281,524.931824 
	C722.624329,524.388489 724.612000,526.096680 724.184631,530.491211 
	C723.354980,539.024048 722.588257,547.563049 721.834229,556.546509 
	C721.604187,558.418030 721.335510,559.842651 721.001709,562.035522 
	C720.855469,564.193542 720.774170,565.583252 720.692932,566.972900 
	C720.136536,570.734131 719.874634,574.573242 718.907898,578.225891 
	C718.369751,580.259216 717.033508,582.747742 715.343384,583.577332 
	C714.200867,584.138062 711.641113,582.409668 710.030701,581.262512 
	C708.154175,579.925781 706.582947,578.144531 704.946472,576.489685 
	C698.630066,570.102173 699.923950,570.548828 693.625244,576.722961 
	C682.508362,587.619995 671.368286,598.493652 660.300842,609.440674 
	C656.131775,613.564331 651.372253,614.951355 645.389648,612.584290 
	C645.029968,601.727783 644.944397,591.530701 645.102722,581.337463 
	C645.125244,579.886475 646.330872,578.453796 646.988892,577.012695 
z"/>
<path fill="#B89153" opacity="1.000000" stroke="none" 
	d="
M766.476440,633.887146 
	C765.010925,632.874146 764.012085,631.829468 763.030823,630.395813 
	C771.369934,611.553833 779.687500,593.098999 788.014709,574.648499 
	C792.592407,564.505859 797.014099,554.284851 801.965820,544.327820 
	C802.676880,542.898010 805.942200,542.382080 808.097900,542.166077 
	C809.311157,542.044434 811.346741,543.076111 811.861877,544.143311 
	C816.455872,553.659668 820.849731,563.274475 825.194519,572.908936 
	C834.190552,592.857422 843.120300,612.835815 852.552124,633.860291 
	C844.361877,633.860291 836.986938,633.952393 829.620850,633.739075 
	C828.739319,633.713562 827.608093,632.166382 827.103210,631.085876 
	C825.204102,627.022217 823.394714,622.906311 821.793335,618.717529 
	C820.767395,616.034180 819.286011,614.825012 816.250671,614.884460 
	C807.924072,615.047668 799.583435,615.091736 791.264099,614.773376 
	C787.120972,614.614868 784.953308,615.798462 783.684082,619.980713 
	C781.844604,626.042175 781.067017,626.232422 775.822449,624.946106 
	C777.686707,620.490784 779.369080,616.025452 781.478516,611.771912 
	C781.948853,610.823608 783.915222,610.160217 785.201843,610.145447 
	C796.530212,610.015015 807.863586,609.932373 819.187134,610.196594 
	C820.842163,610.235291 823.050354,611.813110 823.960999,613.311707 
	C825.932678,616.556335 827.545288,620.108276 828.721985,623.724182 
	C830.171387,628.177979 832.897827,629.676208 837.348816,629.029541 
	C839.289551,628.747559 841.305298,628.982117 844.365295,628.982117 
	C841.796509,622.756470 839.610596,617.137085 837.180115,611.625488 
	C828.133301,591.110046 819.024841,570.621765 809.862427,550.157776 
	C809.318115,548.942139 808.098389,548.028809 807.192932,546.974854 
	C806.114441,548.041931 804.597656,548.913757 804.022522,550.205017 
	C794.011536,572.681763 784.105652,595.205383 774.206665,617.731873 
	C772.695190,621.171509 771.332703,624.676575 769.554077,628.994507 
	C774.511902,628.994507 778.637329,629.279663 782.679932,628.826050 
	C783.942566,628.684387 785.643433,626.717957 786.006958,625.296265 
	C787.511108,619.413879 790.979797,617.465393 796.916077,618.079529 
	C802.026184,618.608215 807.249390,617.965149 812.391724,618.305786 
	C814.132812,618.421082 815.779541,619.960205 817.469421,620.848572 
	C817.258545,621.568604 817.047668,622.288696 816.836792,623.008789 
	C810.632690,623.008789 804.415588,623.253174 798.228882,622.925232 
	C793.911987,622.696411 790.870300,623.443420 789.760071,628.214050 
	C788.697937,632.778015 785.692444,634.408203 780.929077,633.942383 
	C776.308533,633.490601 771.608398,633.851440 766.476440,633.887146 
z"/>
<path fill="#B89153" opacity="1.000000" stroke="none" 
	d="
M864.979187,628.848938 
	C868.761780,628.848938 872.544373,628.848938 876.950562,628.848938 
	C876.950562,626.619080 876.950623,624.842468 876.950562,623.065857 
	C876.949158,598.093079 876.947021,573.120361 876.948120,548.147583 
	C876.948181,546.815979 876.636047,545.348572 877.097473,544.195862 
	C877.464478,543.279175 878.730286,542.344177 879.716370,542.192322 
	C880.327393,542.098328 881.704956,543.389954 881.794678,544.168457 
	C882.078918,546.634155 881.929016,549.150940 881.930054,551.648010 
	C881.940308,575.788269 881.947083,599.928467 881.998535,624.536133 
	C882.042297,627.772644 882.042297,630.541687 882.042297,633.628479 
	C874.155884,633.628479 866.961121,633.628479 858.981934,633.628479 
	C858.981934,617.616272 858.981934,601.777222 858.934204,585.471924 
	C858.886475,570.894653 858.886475,556.783569 858.886475,542.337646 
	C863.817505,542.337646 868.047485,542.337646 872.735229,542.337646 
	C872.837769,544.080933 873.013306,545.685120 873.014404,547.289368 
	C873.030823,571.442444 873.056702,595.595581 872.962219,619.748291 
	C872.954590,621.700378 874.400085,625.055237 870.395203,624.918091 
	C866.463318,624.783325 868.078674,621.454163 868.068481,619.530640 
	C867.951233,597.377075 867.992249,575.222656 867.988525,553.068481 
	C867.988342,551.736084 868.166260,550.358582 867.879700,549.088196 
	C867.709595,548.334290 866.791687,547.749023 866.210083,547.087891 
	C865.482239,547.766968 864.541992,548.331543 864.094666,549.161743 
	C863.744507,549.811584 863.995239,550.790527 863.995605,551.623230 
	C864.004822,576.775574 864.016113,601.927856 864.117798,627.769897 
	C864.382080,628.754150 864.638977,628.883911 864.979187,628.848938 
z"/>
<path fill="#B89153" opacity="1.000000" stroke="none" 
	d="
M802.014404,602.870483 
	C805.918213,602.870056 809.336365,602.870056 813.928467,602.870056 
	C811.522034,597.290771 809.595947,592.825073 807.545471,588.071106 
	C803.349792,590.869141 805.532593,598.802246 797.076477,598.965576 
	C800.370056,590.747559 803.278015,583.491821 806.185974,576.236084 
	C806.615234,576.151001 807.044556,576.065857 807.473816,575.980713 
	C812.039246,585.892456 816.604675,595.804199 821.495483,606.422363 
	C808.649597,606.422363 796.541260,606.422363 783.534607,606.422363 
	C791.264709,588.929871 798.773132,571.939087 806.281555,554.948242 
	C806.733826,554.951233 807.186096,554.954163 807.638367,554.957153 
	C818.104248,578.292236 828.570190,601.627380 839.070679,625.039490 
	C835.003723,626.913330 833.350464,625.122192 832.056152,622.139038 
	C824.381653,604.451111 816.645813,586.789795 808.916260,569.125854 
	C808.475220,568.117920 807.907776,567.165283 806.824585,565.081238 
	C801.455444,577.948914 796.488037,589.853760 791.056519,602.870972 
	C795.352661,602.870972 798.440735,602.870972 802.014404,602.870483 
z"/>
<path fill="#C8A967" opacity="1.000000" stroke="none" 
	d="
M589.854126,574.287720 
	C595.318848,568.750427 600.604492,563.480042 605.977417,558.300415 
	C609.099548,555.290527 612.312683,552.320251 617.612427,553.576965 
	C618.003967,563.548706 617.940186,572.996338 618.037720,582.442200 
	C618.059326,584.531555 618.650879,586.614990 618.979980,588.701172 
	C615.396301,591.592041 611.812683,594.482849 608.091187,597.679565 
	C595.169861,610.606140 582.390137,623.230591 569.598328,635.842773 
	C568.059326,637.360229 566.455017,638.811523 564.403381,640.019226 
	C563.622070,637.987244 563.074158,636.231934 563.055969,634.471252 
	C562.965454,625.737671 563.075989,617.001953 562.969910,608.268738 
	C562.944641,606.182739 562.361328,604.103516 562.034668,602.021179 
	C571.260315,592.878357 580.485901,583.735535 589.854126,574.287720 
z"/>
<path fill="#B89153" opacity="1.000000" stroke="none" 
	d="
M561.720520,602.138428 
	C562.361328,604.103516 562.944641,606.182739 562.969910,608.268738 
	C563.075989,617.001953 562.965454,625.737671 563.055969,634.471252 
	C563.074158,636.231934 563.622070,637.987244 564.104980,640.197693 
	C558.584778,648.203552 550.024231,650.497498 542.997986,646.354492 
	C534.460449,641.320312 533.596741,630.343201 541.340881,622.286316 
	C547.888611,615.474121 554.707520,608.922607 561.720520,602.138428 
z"/>
<path fill="#C8A967" opacity="1.000000" stroke="none" 
	d="
M921.617554,572.663330 
	C909.806396,588.576904 917.175476,607.528259 936.206299,610.459167 
	C939.553528,610.974670 943.195496,609.576050 947.532654,608.939270 
	C946.320312,607.556885 946.142456,607.158386 945.927612,607.137329 
	C935.103210,606.078979 934.654175,605.421936 936.866394,593.366638 
	C944.554199,593.366638 952.307129,593.366638 960.876221,593.366638 
	C960.876221,600.775696 961.655823,608.314270 960.463196,615.526733 
	C960.032288,618.132935 955.142517,620.557678 951.829163,622.042419 
	C927.805603,632.807373 902.549011,612.117432 901.664368,591.455322 
	C900.942444,574.593506 907.980042,562.380554 919.836304,555.915588 
	C935.036804,547.627075 952.257385,549.940674 963.317322,560.799744 
	C963.657959,561.134155 963.858948,561.610901 964.459473,562.537109 
	C961.682495,565.761658 958.835815,569.067200 956.066589,572.282776 
	C939.793274,563.146912 931.480835,563.248596 921.617554,572.663330 
M941.509705,598.601929 
	C942.461487,599.699646 943.261658,601.502930 944.397034,601.746887 
	C946.702454,602.242432 949.189087,601.895020 951.488647,601.895020 
	C952.623718,611.890747 951.986389,612.923279 944.177490,614.758972 
	C934.045837,617.140747 922.043274,612.506836 915.964600,603.866699 
	C908.821777,593.713989 909.285767,579.684265 917.069397,570.459290 
	C925.437927,560.541199 939.286133,557.702881 951.000244,563.744690 
	C953.730103,565.152649 955.813965,565.958923 957.471375,562.611389 
	C944.647217,552.622253 928.147888,553.564209 916.113281,564.918335 
	C904.613831,575.767334 902.805725,593.583862 911.908936,606.345459 
	C921.076965,619.197876 938.457703,623.736145 952.259583,616.729248 
	C953.736084,615.979736 955.674683,614.377808 955.792358,613.030884 
	C956.218811,608.150024 955.960449,603.209290 955.960449,598.158264 
	C950.864746,598.158264 946.553162,598.158264 941.509705,598.601929 
z"/>
<path fill="#C8A967" opacity="1.000000" stroke="none" 
	d="
M966.038086,624.655151 
	C960.684387,627.277771 955.702026,629.979675 950.436462,631.908569 
	C935.738647,637.292419 922.622192,632.980164 910.826477,624.073486 
	C895.493408,612.495728 890.426147,596.151428 893.415466,578.023621 
	C895.120300,567.684570 900.588135,558.117859 909.918213,551.315796 
	C928.023987,538.273132 953.756714,538.897278 970.799988,555.923706 
	C970.039429,556.887390 969.255981,557.879944 968.465210,558.881897 
	C967.794739,558.678711 967.248474,558.656677 966.894348,558.384644 
	C959.564575,552.755127 951.818176,548.605713 942.289124,547.316223 
	C921.747009,544.536316 899.793640,561.415222 897.959351,582.158569 
	C896.438599,599.356018 902.054382,613.307312 916.985840,622.659607 
	C928.892944,630.117676 941.207886,630.937866 954.382385,625.196045 
	C962.449341,621.680115 966.524353,617.268799 965.132019,608.006592 
	C964.233337,602.028381 964.963074,595.805420 964.963074,589.104370 
	C956.449951,589.104370 948.500549,589.205933 940.558533,589.010742 
	C939.126953,588.975586 937.725342,587.719421 936.309875,587.026978 
	C937.713989,586.080078 939.093384,584.359558 940.526367,584.313904 
	C948.846008,584.048340 957.180054,584.276489 965.505310,584.121704 
	C968.739563,584.061523 969.934937,585.207153 969.889526,588.469177 
	C969.750427,598.460876 970.030640,608.462585 969.676392,618.443604 
	C969.604858,620.460571 967.465942,622.404114 966.038086,624.655151 
z"/>
<path fill="#5A5E65" opacity="1.000000" stroke="none" 
	d="
M1018.953857,541.566406 
	C1018.561951,541.942688 1018.120422,542.029846 1017.341309,542.098938 
	C1017.637207,541.813049 1018.270752,541.545166 1018.953857,541.566406 
z"/>
<path fill="#5A5E65" opacity="1.000000" stroke="none" 
	d="
M864.878357,628.670044 
	C864.638977,628.883911 864.382080,628.754150 864.163208,628.237549 
	C864.382996,628.111389 864.602844,628.269897 864.878357,628.670044 
z"/>
<path fill="#D4BC77" opacity="1.000000" stroke="none" 
	d="
M619.212036,588.964355 
	C618.650879,586.614990 618.059326,584.531555 618.037720,582.442200 
	C617.940186,572.996338 618.003967,563.548706 618.021729,553.648560 
	C621.266724,554.559326 625.131897,555.214172 627.610901,557.423950 
	C634.305725,563.391724 640.410645,570.021240 646.869263,576.700439 
	C646.330872,578.453796 645.125244,579.886475 645.102722,581.337463 
	C644.944397,591.530701 645.029968,601.727783 645.045532,612.378784 
	C642.992065,611.570740 640.611389,610.634155 638.925842,608.986389 
	C632.312988,602.521851 625.919250,595.833069 619.212036,588.964355 
z"/>
<path fill="#4F545B" opacity="1.000000" stroke="none" 
	d="
M721.072998,566.955444 
	C720.774170,565.583252 720.855469,564.193542 721.044189,562.399048 
	C724.931519,563.417786 725.202820,565.055298 721.072998,566.955444 
z"/>
<path fill="#5A5E65" opacity="1.000000" stroke="none" 
	d="
M1051.572998,618.605347 
	C1041.499756,627.282104 1029.709839,631.019653 1017.423584,628.636963 
	C1001.247498,625.499878 989.512695,615.625977 984.674561,599.240845 
	C978.130005,577.076660 990.798096,553.961487 1013.105286,547.971375 
	C1029.969360,543.442871 1048.578857,549.118103 1059.341431,566.001526 
	C1068.312378,580.074402 1067.062256,600.601257 1056.177002,613.571960 
	C1054.791138,615.223267 1053.297119,616.783691 1051.572998,618.605347 
M1047.276733,616.839478 
	C1059.326660,606.586731 1063.527100,593.575745 1059.951294,578.351013 
	C1056.354858,563.037964 1046.464722,553.830383 1030.851196,551.430847 
	C1015.841553,549.124084 1002.871826,553.550171 993.948242,566.002319 
	C985.220703,578.180847 984.355957,591.604370 991.469666,605.096069 
	C1001.162354,623.479065 1026.655273,632.353271 1047.276733,616.839478 
z"/>
<path fill="#5A5E65" opacity="1.000000" stroke="none" 
	d="
M941.875671,598.380127 
	C946.553162,598.158264 950.864746,598.158264 955.960449,598.158264 
	C955.960449,603.209290 956.218811,608.150024 955.792358,613.030884 
	C955.674683,614.377808 953.736084,615.979736 952.259583,616.729248 
	C938.457703,623.736145 921.076965,619.197876 911.908936,606.345459 
	C902.805725,593.583862 904.613831,575.767334 916.113281,564.918335 
	C928.147888,553.564209 944.647217,552.622253 957.471375,562.611389 
	C955.813965,565.958923 953.730103,565.152649 951.000244,563.744690 
	C939.286133,557.702881 925.437927,560.541199 917.069397,570.459290 
	C909.285767,579.684265 908.821777,593.713989 915.964600,603.866699 
	C922.043274,612.506836 934.045837,617.140747 944.177490,614.758972 
	C951.986389,612.923279 952.623718,611.890747 951.488647,601.895020 
	C949.189087,601.895020 946.702454,602.242432 944.397034,601.746887 
	C943.261658,601.502930 942.461487,599.699646 941.875671,598.380127 
z"/>
<path fill="#D4BC77" opacity="1.000000" stroke="none" 
	d="
M1046.961426,617.012573 
	C1026.655273,632.353271 1001.162354,623.479065 991.469666,605.096069 
	C984.355957,591.604370 985.220703,578.180847 993.948242,566.002319 
	C1002.871826,553.550171 1015.841553,549.124084 1030.851196,551.430847 
	C1046.464722,553.830383 1056.354858,563.037964 1059.951294,578.351013 
	C1063.527100,593.575745 1059.326660,606.586731 1046.961426,617.012573 
M1048.005249,609.480530 
	C1048.539917,608.843323 1049.125000,608.241577 1049.601685,607.563538 
	C1057.454590,596.392517 1058.904907,584.418396 1052.522705,572.334900 
	C1045.722900,559.460693 1034.254150,554.406921 1020.001465,555.936890 
	C1007.242310,557.306580 998.609009,564.562134 993.949585,576.267822 
	C988.239319,590.613525 993.849487,606.288635 1007.452454,615.311707 
	C1019.786560,623.493042 1035.595215,621.397766 1048.005249,609.480530 
z"/>
<path fill="#5A5E65" opacity="1.000000" stroke="none" 
	d="
M1047.761353,609.741028 
	C1035.595215,621.397766 1019.786560,623.493042 1007.452454,615.311707 
	C993.849487,606.288635 988.239319,590.613525 993.949585,576.267822 
	C998.609009,564.562134 1007.242310,557.306580 1020.001465,555.936890 
	C1034.254150,554.406921 1045.722900,559.460693 1052.522705,572.334900 
	C1058.904907,584.418396 1057.454590,596.392517 1049.601685,607.563538 
	C1049.125000,608.241577 1048.539917,608.843323 1047.761353,609.741028 
M1035.521851,561.732178 
	C1030.498901,561.083435 1025.431396,559.658203 1020.462219,559.944397 
	C1009.433289,560.579529 1001.829224,566.884460 997.922668,576.953735 
	C993.585999,588.131836 995.444336,598.602783 1003.871216,607.445618 
	C1011.871216,615.840515 1021.780212,618.279846 1032.647949,614.855835 
	C1044.005249,611.277588 1050.758423,603.047180 1051.938721,591.177734 
	C1053.230225,578.192017 1048.185547,568.127136 1035.521851,561.732178 
z"/>
<path fill="#D4BC77" opacity="1.000000" stroke="none" 
	d="
M1035.870850,561.889343 
	C1048.185547,568.127136 1053.230225,578.192017 1051.938721,591.177734 
	C1050.758423,603.047180 1044.005249,611.277588 1032.647949,614.855835 
	C1021.780212,618.279846 1011.871216,615.840515 1003.871216,607.445618 
	C995.444336,598.602783 993.585999,588.131836 997.922668,576.953735 
	C1001.829224,566.884460 1009.433289,560.579529 1020.462219,559.944397 
	C1025.431396,559.658203 1030.498901,561.083435 1035.870850,561.889343 
M1047.254272,588.407532 
	C1046.974121,572.613586 1035.958252,562.722046 1020.911072,564.752991 
	C1007.862122,566.514221 999.940918,576.683594 1000.881592,590.467346 
	C1001.647644,601.691711 1011.997925,610.949158 1023.893372,611.049377 
	C1036.516968,611.155640 1046.252808,602.091431 1047.254272,588.407532 
z"/>
<path fill="#555960" opacity="1.000000" stroke="none" 
	d="
M1047.246216,588.861206 
	C1046.252808,602.091431 1036.516968,611.155640 1023.893372,611.049377 
	C1011.997925,610.949158 1001.647644,601.691711 1000.881592,590.467346 
	C999.940918,576.683594 1007.862122,566.514221 1020.911072,564.752991 
	C1035.958252,562.722046 1046.974121,572.613586 1047.246216,588.861206 
z"/>
</svg>